<mxfile host="app.diagrams.net" agent="Mozilla/5.0 (Windows NT 10.0; Win64; x64) AppleWebKit/537.36 (KHTML, like Gecko) Chrome/131.0.0.0 Safari/537.36" version="25.0.3">
  <diagram name="Страница — 1" id="Pbs-rvOL3PIkl9b6k2pJ">
    <mxGraphModel dx="2390" dy="1268" grid="0" gridSize="10" guides="1" tooltips="1" connect="1" arrows="1" fold="1" page="0" pageScale="1" pageWidth="827" pageHeight="1169" math="0" shadow="0">
      <root>
        <mxCell id="0" />
        <mxCell id="1" parent="0" />
        <mxCell id="wFGTanM9Hy6jvcVWlgYb-62" value="2" style="ellipse;whiteSpace=wrap;html=1;aspect=fixed;rounded=1;" vertex="1" parent="1">
          <mxGeometry x="294.5" y="173" width="30" height="30" as="geometry" />
        </mxCell>
        <mxCell id="wFGTanM9Hy6jvcVWlgYb-63" value="=" style="ellipse;whiteSpace=wrap;html=1;aspect=fixed;rounded=1;" vertex="1" parent="1">
          <mxGeometry x="334.5" y="234" width="30" height="30" as="geometry" />
        </mxCell>
        <mxCell id="wFGTanM9Hy6jvcVWlgYb-64" value="E" style="ellipse;whiteSpace=wrap;html=1;aspect=fixed;rounded=1;" vertex="1" parent="1">
          <mxGeometry x="377.5" y="234" width="30" height="30" as="geometry" />
        </mxCell>
        <mxCell id="wFGTanM9Hy6jvcVWlgYb-65" value=";" style="ellipse;whiteSpace=wrap;html=1;aspect=fixed;rounded=1;" vertex="1" parent="1">
          <mxGeometry x="425.5" y="234" width="30" height="30" as="geometry" />
        </mxCell>
        <mxCell id="wFGTanM9Hy6jvcVWlgYb-66" value="i" style="ellipse;whiteSpace=wrap;html=1;aspect=fixed;rounded=1;" vertex="1" parent="1">
          <mxGeometry x="296.5" y="234" width="30" height="30" as="geometry" />
        </mxCell>
        <mxCell id="wFGTanM9Hy6jvcVWlgYb-67" value="t" style="ellipse;whiteSpace=wrap;html=1;aspect=fixed;rounded=1;" vertex="1" parent="1">
          <mxGeometry x="252.5" y="234" width="30" height="30" as="geometry" />
        </mxCell>
        <mxCell id="wFGTanM9Hy6jvcVWlgYb-68" value="N" style="ellipse;whiteSpace=wrap;html=1;aspect=fixed;rounded=1;" vertex="1" parent="1">
          <mxGeometry x="474.5" y="234" width="30" height="30" as="geometry" />
        </mxCell>
        <mxCell id="wFGTanM9Hy6jvcVWlgYb-69" value="M" style="ellipse;whiteSpace=wrap;html=1;aspect=fixed;rounded=1;" vertex="1" parent="1">
          <mxGeometry x="368.5" y="287" width="30" height="30" as="geometry" />
        </mxCell>
        <mxCell id="wFGTanM9Hy6jvcVWlgYb-70" value="l" style="ellipse;whiteSpace=wrap;html=1;aspect=fixed;rounded=1;" vertex="1" parent="1">
          <mxGeometry x="326.5" y="284" width="30" height="30" as="geometry" />
        </mxCell>
        <mxCell id="wFGTanM9Hy6jvcVWlgYb-71" value="E" style="ellipse;whiteSpace=wrap;html=1;aspect=fixed;rounded=1;" vertex="1" parent="1">
          <mxGeometry x="368.5" y="339" width="30" height="30" as="geometry" />
        </mxCell>
        <mxCell id="wFGTanM9Hy6jvcVWlgYb-72" value="v" style="ellipse;whiteSpace=wrap;html=1;aspect=fixed;rounded=1;" vertex="1" parent="1">
          <mxGeometry x="326.5" y="334" width="30" height="30" as="geometry" />
        </mxCell>
        <mxCell id="wFGTanM9Hy6jvcVWlgYb-73" value="l" style="ellipse;whiteSpace=wrap;html=1;aspect=fixed;rounded=1;" vertex="1" parent="1">
          <mxGeometry x="368.5" y="391" width="30" height="30" as="geometry" />
        </mxCell>
        <mxCell id="wFGTanM9Hy6jvcVWlgYb-74" value="" style="endArrow=none;html=1;rounded=1;entryX=0.5;entryY=1;entryDx=0;entryDy=0;exitX=0.5;exitY=0;exitDx=0;exitDy=0;" edge="1" parent="1" source="wFGTanM9Hy6jvcVWlgYb-67" target="wFGTanM9Hy6jvcVWlgYb-62">
          <mxGeometry width="50" height="50" relative="1" as="geometry">
            <mxPoint x="268.5" y="234" as="sourcePoint" />
            <mxPoint x="275.12" y="280" as="targetPoint" />
          </mxGeometry>
        </mxCell>
        <mxCell id="wFGTanM9Hy6jvcVWlgYb-75" value="" style="endArrow=none;html=1;rounded=1;entryX=0.5;entryY=1;entryDx=0;entryDy=0;exitX=0.5;exitY=0;exitDx=0;exitDy=0;" edge="1" parent="1" source="wFGTanM9Hy6jvcVWlgYb-66" target="wFGTanM9Hy6jvcVWlgYb-62">
          <mxGeometry width="50" height="50" relative="1" as="geometry">
            <mxPoint x="203.5" y="336" as="sourcePoint" />
            <mxPoint x="253.5" y="286" as="targetPoint" />
          </mxGeometry>
        </mxCell>
        <mxCell id="wFGTanM9Hy6jvcVWlgYb-76" value="" style="endArrow=none;html=1;rounded=1;entryX=0.5;entryY=1;entryDx=0;entryDy=0;exitX=0.5;exitY=0;exitDx=0;exitDy=0;" edge="1" parent="1" source="wFGTanM9Hy6jvcVWlgYb-63" target="wFGTanM9Hy6jvcVWlgYb-62">
          <mxGeometry width="50" height="50" relative="1" as="geometry">
            <mxPoint x="193.5" y="348" as="sourcePoint" />
            <mxPoint x="243.5" y="298" as="targetPoint" />
          </mxGeometry>
        </mxCell>
        <mxCell id="wFGTanM9Hy6jvcVWlgYb-77" value="" style="endArrow=none;html=1;rounded=1;entryX=0.5;entryY=1;entryDx=0;entryDy=0;exitX=0.5;exitY=0;exitDx=0;exitDy=0;" edge="1" parent="1" source="wFGTanM9Hy6jvcVWlgYb-64" target="wFGTanM9Hy6jvcVWlgYb-62">
          <mxGeometry width="50" height="50" relative="1" as="geometry">
            <mxPoint x="204.5" y="336" as="sourcePoint" />
            <mxPoint x="254.5" y="286" as="targetPoint" />
          </mxGeometry>
        </mxCell>
        <mxCell id="wFGTanM9Hy6jvcVWlgYb-78" value="" style="endArrow=none;html=1;rounded=1;entryX=0.5;entryY=1;entryDx=0;entryDy=0;exitX=0.5;exitY=0;exitDx=0;exitDy=0;" edge="1" parent="1" source="wFGTanM9Hy6jvcVWlgYb-65" target="wFGTanM9Hy6jvcVWlgYb-62">
          <mxGeometry width="50" height="50" relative="1" as="geometry">
            <mxPoint x="192.5" y="324" as="sourcePoint" />
            <mxPoint x="242.5" y="274" as="targetPoint" />
          </mxGeometry>
        </mxCell>
        <mxCell id="wFGTanM9Hy6jvcVWlgYb-79" value="" style="endArrow=none;html=1;rounded=1;entryX=0.5;entryY=1;entryDx=0;entryDy=0;exitX=0.5;exitY=0;exitDx=0;exitDy=0;" edge="1" parent="1" source="wFGTanM9Hy6jvcVWlgYb-68" target="wFGTanM9Hy6jvcVWlgYb-62">
          <mxGeometry width="50" height="50" relative="1" as="geometry">
            <mxPoint x="204.5" y="319" as="sourcePoint" />
            <mxPoint x="254.5" y="269" as="targetPoint" />
          </mxGeometry>
        </mxCell>
        <mxCell id="wFGTanM9Hy6jvcVWlgYb-80" value="" style="endArrow=none;html=1;rounded=1;entryX=0.5;entryY=1;entryDx=0;entryDy=0;exitX=0.5;exitY=0;exitDx=0;exitDy=0;" edge="1" parent="1" source="wFGTanM9Hy6jvcVWlgYb-70" target="wFGTanM9Hy6jvcVWlgYb-64">
          <mxGeometry width="50" height="50" relative="1" as="geometry">
            <mxPoint x="163.5" y="341" as="sourcePoint" />
            <mxPoint x="213.5" y="291" as="targetPoint" />
          </mxGeometry>
        </mxCell>
        <mxCell id="wFGTanM9Hy6jvcVWlgYb-81" value="" style="endArrow=none;html=1;rounded=1;entryX=0.5;entryY=1;entryDx=0;entryDy=0;exitX=0.5;exitY=0;exitDx=0;exitDy=0;" edge="1" parent="1" source="wFGTanM9Hy6jvcVWlgYb-69" target="wFGTanM9Hy6jvcVWlgYb-64">
          <mxGeometry width="50" height="50" relative="1" as="geometry">
            <mxPoint x="157.5" y="371" as="sourcePoint" />
            <mxPoint x="207.5" y="321" as="targetPoint" />
          </mxGeometry>
        </mxCell>
        <mxCell id="wFGTanM9Hy6jvcVWlgYb-82" value="" style="endArrow=none;html=1;rounded=1;entryX=0.5;entryY=1;entryDx=0;entryDy=0;exitX=0.5;exitY=0;exitDx=0;exitDy=0;" edge="1" parent="1" source="wFGTanM9Hy6jvcVWlgYb-72" target="wFGTanM9Hy6jvcVWlgYb-69">
          <mxGeometry width="50" height="50" relative="1" as="geometry">
            <mxPoint x="242.5" y="419" as="sourcePoint" />
            <mxPoint x="292.5" y="369" as="targetPoint" />
          </mxGeometry>
        </mxCell>
        <mxCell id="wFGTanM9Hy6jvcVWlgYb-83" value="" style="endArrow=none;html=1;rounded=1;entryX=0.5;entryY=1;entryDx=0;entryDy=0;exitX=0.5;exitY=0;exitDx=0;exitDy=0;" edge="1" parent="1" source="wFGTanM9Hy6jvcVWlgYb-71" target="wFGTanM9Hy6jvcVWlgYb-69">
          <mxGeometry width="50" height="50" relative="1" as="geometry">
            <mxPoint x="216.5" y="430" as="sourcePoint" />
            <mxPoint x="266.5" y="380" as="targetPoint" />
          </mxGeometry>
        </mxCell>
        <mxCell id="wFGTanM9Hy6jvcVWlgYb-84" value="" style="endArrow=none;html=1;rounded=1;entryX=0.5;entryY=1;entryDx=0;entryDy=0;exitX=0.5;exitY=0;exitDx=0;exitDy=0;" edge="1" parent="1" source="wFGTanM9Hy6jvcVWlgYb-73" target="wFGTanM9Hy6jvcVWlgYb-71">
          <mxGeometry width="50" height="50" relative="1" as="geometry">
            <mxPoint x="259.5" y="461" as="sourcePoint" />
            <mxPoint x="309.5" y="411" as="targetPoint" />
          </mxGeometry>
        </mxCell>
        <mxCell id="wFGTanM9Hy6jvcVWlgYb-85" value=";" style="ellipse;whiteSpace=wrap;html=1;aspect=fixed;rounded=1;" vertex="1" parent="1">
          <mxGeometry x="533.5" y="296" width="30" height="30" as="geometry" />
        </mxCell>
        <mxCell id="wFGTanM9Hy6jvcVWlgYb-86" value="z" style="ellipse;whiteSpace=wrap;html=1;aspect=fixed;rounded=1;" vertex="1" parent="1">
          <mxGeometry x="449.5" y="296" width="30" height="30" as="geometry" />
        </mxCell>
        <mxCell id="wFGTanM9Hy6jvcVWlgYb-87" value="i" style="ellipse;whiteSpace=wrap;html=1;aspect=fixed;rounded=1;" vertex="1" parent="1">
          <mxGeometry x="492.5" y="296" width="30" height="30" as="geometry" />
        </mxCell>
        <mxCell id="wFGTanM9Hy6jvcVWlgYb-88" value="" style="endArrow=none;html=1;rounded=1;entryX=0.5;entryY=1;entryDx=0;entryDy=0;exitX=0.5;exitY=0;exitDx=0;exitDy=0;" edge="1" parent="1" source="wFGTanM9Hy6jvcVWlgYb-86" target="wFGTanM9Hy6jvcVWlgYb-68">
          <mxGeometry width="50" height="50" relative="1" as="geometry">
            <mxPoint x="429.5" y="339" as="sourcePoint" />
            <mxPoint x="479.5" y="289" as="targetPoint" />
          </mxGeometry>
        </mxCell>
        <mxCell id="wFGTanM9Hy6jvcVWlgYb-89" value="" style="endArrow=none;html=1;rounded=1;entryX=0.5;entryY=1;entryDx=0;entryDy=0;exitX=0.5;exitY=0;exitDx=0;exitDy=0;" edge="1" parent="1" source="wFGTanM9Hy6jvcVWlgYb-87" target="wFGTanM9Hy6jvcVWlgYb-68">
          <mxGeometry width="50" height="50" relative="1" as="geometry">
            <mxPoint x="489.5" y="392" as="sourcePoint" />
            <mxPoint x="539.5" y="342" as="targetPoint" />
          </mxGeometry>
        </mxCell>
        <mxCell id="wFGTanM9Hy6jvcVWlgYb-90" value="" style="endArrow=none;html=1;rounded=1;entryX=0.5;entryY=1;entryDx=0;entryDy=0;exitX=0.5;exitY=0;exitDx=0;exitDy=0;" edge="1" parent="1" source="wFGTanM9Hy6jvcVWlgYb-85" target="wFGTanM9Hy6jvcVWlgYb-68">
          <mxGeometry width="50" height="50" relative="1" as="geometry">
            <mxPoint x="502.5" y="390" as="sourcePoint" />
            <mxPoint x="552.5" y="340" as="targetPoint" />
          </mxGeometry>
        </mxCell>
        <mxCell id="wFGTanM9Hy6jvcVWlgYb-91" value="N" style="ellipse;whiteSpace=wrap;html=1;aspect=fixed;rounded=1;" vertex="1" parent="1">
          <mxGeometry x="574.5" y="296" width="30" height="30" as="geometry" />
        </mxCell>
        <mxCell id="wFGTanM9Hy6jvcVWlgYb-92" value="" style="endArrow=none;html=1;rounded=1;entryX=0.5;entryY=1;entryDx=0;entryDy=0;exitX=0.5;exitY=0;exitDx=0;exitDy=0;" edge="1" parent="1" source="wFGTanM9Hy6jvcVWlgYb-91" target="wFGTanM9Hy6jvcVWlgYb-68">
          <mxGeometry width="50" height="50" relative="1" as="geometry">
            <mxPoint x="524.5" y="416" as="sourcePoint" />
            <mxPoint x="574.5" y="366" as="targetPoint" />
          </mxGeometry>
        </mxCell>
        <mxCell id="wFGTanM9Hy6jvcVWlgYb-93" value=";" style="ellipse;whiteSpace=wrap;html=1;aspect=fixed;rounded=1;" vertex="1" parent="1">
          <mxGeometry x="630.5" y="351" width="30" height="30" as="geometry" />
        </mxCell>
        <mxCell id="wFGTanM9Hy6jvcVWlgYb-94" value="z" style="ellipse;whiteSpace=wrap;html=1;aspect=fixed;rounded=1;" vertex="1" parent="1">
          <mxGeometry x="546.5" y="351" width="30" height="30" as="geometry" />
        </mxCell>
        <mxCell id="wFGTanM9Hy6jvcVWlgYb-95" value="i" style="ellipse;whiteSpace=wrap;html=1;aspect=fixed;rounded=1;" vertex="1" parent="1">
          <mxGeometry x="589.5" y="351" width="30" height="30" as="geometry" />
        </mxCell>
        <mxCell id="wFGTanM9Hy6jvcVWlgYb-96" value="" style="endArrow=none;html=1;rounded=1;entryX=0.5;entryY=1;entryDx=0;entryDy=0;exitX=0.5;exitY=0;exitDx=0;exitDy=0;" edge="1" parent="1" source="wFGTanM9Hy6jvcVWlgYb-94" target="wFGTanM9Hy6jvcVWlgYb-91">
          <mxGeometry width="50" height="50" relative="1" as="geometry">
            <mxPoint x="443.5" y="411" as="sourcePoint" />
            <mxPoint x="493.5" y="361" as="targetPoint" />
          </mxGeometry>
        </mxCell>
        <mxCell id="wFGTanM9Hy6jvcVWlgYb-97" value="" style="endArrow=none;html=1;rounded=1;entryX=0.5;entryY=1;entryDx=0;entryDy=0;exitX=0.5;exitY=0;exitDx=0;exitDy=0;" edge="1" parent="1" source="wFGTanM9Hy6jvcVWlgYb-95" target="wFGTanM9Hy6jvcVWlgYb-91">
          <mxGeometry width="50" height="50" relative="1" as="geometry">
            <mxPoint x="560.5" y="436" as="sourcePoint" />
            <mxPoint x="610.5" y="386" as="targetPoint" />
          </mxGeometry>
        </mxCell>
        <mxCell id="wFGTanM9Hy6jvcVWlgYb-98" value="" style="endArrow=none;html=1;rounded=1;entryX=0.5;entryY=1;entryDx=0;entryDy=0;exitX=0.5;exitY=0;exitDx=0;exitDy=0;" edge="1" parent="1" source="wFGTanM9Hy6jvcVWlgYb-93" target="wFGTanM9Hy6jvcVWlgYb-91">
          <mxGeometry width="50" height="50" relative="1" as="geometry">
            <mxPoint x="598.5" y="452" as="sourcePoint" />
            <mxPoint x="648.5" y="402" as="targetPoint" />
          </mxGeometry>
        </mxCell>
        <mxCell id="wFGTanM9Hy6jvcVWlgYb-99" value=";" style="ellipse;whiteSpace=wrap;html=1;aspect=fixed;rounded=1;" vertex="1" parent="1">
          <mxGeometry x="713.5" y="413" width="30" height="30" as="geometry" />
        </mxCell>
        <mxCell id="wFGTanM9Hy6jvcVWlgYb-100" value="z" style="ellipse;whiteSpace=wrap;html=1;aspect=fixed;rounded=1;" vertex="1" parent="1">
          <mxGeometry x="629.5" y="413" width="30" height="30" as="geometry" />
        </mxCell>
        <mxCell id="wFGTanM9Hy6jvcVWlgYb-101" value="i" style="ellipse;whiteSpace=wrap;html=1;aspect=fixed;rounded=1;" vertex="1" parent="1">
          <mxGeometry x="672.5" y="413" width="30" height="30" as="geometry" />
        </mxCell>
        <mxCell id="wFGTanM9Hy6jvcVWlgYb-102" value="N" style="ellipse;whiteSpace=wrap;html=1;aspect=fixed;rounded=1;" vertex="1" parent="1">
          <mxGeometry x="804.5" y="355" width="30" height="30" as="geometry" />
        </mxCell>
        <mxCell id="wFGTanM9Hy6jvcVWlgYb-103" value="N" style="ellipse;whiteSpace=wrap;html=1;aspect=fixed;rounded=1;" vertex="1" parent="1">
          <mxGeometry x="679.5" y="351" width="30" height="30" as="geometry" />
        </mxCell>
        <mxCell id="wFGTanM9Hy6jvcVWlgYb-104" value="" style="endArrow=none;html=1;rounded=1;entryX=0.5;entryY=1;entryDx=0;entryDy=0;exitX=0.5;exitY=0;exitDx=0;exitDy=0;" edge="1" parent="1" source="wFGTanM9Hy6jvcVWlgYb-103" target="wFGTanM9Hy6jvcVWlgYb-91">
          <mxGeometry width="50" height="50" relative="1" as="geometry">
            <mxPoint x="558.5" y="444" as="sourcePoint" />
            <mxPoint x="608.5" y="394" as="targetPoint" />
          </mxGeometry>
        </mxCell>
        <mxCell id="wFGTanM9Hy6jvcVWlgYb-105" value="" style="endArrow=none;html=1;rounded=1;entryX=0.5;entryY=1;entryDx=0;entryDy=0;exitX=0.5;exitY=0;exitDx=0;exitDy=0;" edge="1" parent="1" source="wFGTanM9Hy6jvcVWlgYb-100" target="wFGTanM9Hy6jvcVWlgYb-103">
          <mxGeometry width="50" height="50" relative="1" as="geometry">
            <mxPoint x="548.49" y="469" as="sourcePoint" />
            <mxPoint x="598.49" y="419" as="targetPoint" />
          </mxGeometry>
        </mxCell>
        <mxCell id="wFGTanM9Hy6jvcVWlgYb-106" value="" style="endArrow=none;html=1;rounded=1;entryX=0.5;entryY=1;entryDx=0;entryDy=0;exitX=0.5;exitY=0;exitDx=0;exitDy=0;" edge="1" parent="1" source="wFGTanM9Hy6jvcVWlgYb-101" target="wFGTanM9Hy6jvcVWlgYb-103">
          <mxGeometry width="50" height="50" relative="1" as="geometry">
            <mxPoint x="554.5" y="476" as="sourcePoint" />
            <mxPoint x="604.5" y="426" as="targetPoint" />
          </mxGeometry>
        </mxCell>
        <mxCell id="wFGTanM9Hy6jvcVWlgYb-107" value="" style="endArrow=none;html=1;rounded=1;entryX=0.5;entryY=1;entryDx=0;entryDy=0;exitX=0.5;exitY=0;exitDx=0;exitDy=0;" edge="1" parent="1" source="wFGTanM9Hy6jvcVWlgYb-99" target="wFGTanM9Hy6jvcVWlgYb-103">
          <mxGeometry width="50" height="50" relative="1" as="geometry">
            <mxPoint x="531.5" y="480" as="sourcePoint" />
            <mxPoint x="581.5" y="430" as="targetPoint" />
          </mxGeometry>
        </mxCell>
        <mxCell id="wFGTanM9Hy6jvcVWlgYb-108" value="" style="endArrow=none;html=1;rounded=1;entryX=0.5;entryY=1;entryDx=0;entryDy=0;exitX=0.5;exitY=0;exitDx=0;exitDy=0;" edge="1" parent="1" source="wFGTanM9Hy6jvcVWlgYb-102" target="wFGTanM9Hy6jvcVWlgYb-103">
          <mxGeometry width="50" height="50" relative="1" as="geometry">
            <mxPoint x="582.5" y="481" as="sourcePoint" />
            <mxPoint x="632.5" y="431" as="targetPoint" />
          </mxGeometry>
        </mxCell>
        <mxCell id="wFGTanM9Hy6jvcVWlgYb-109" value=";" style="ellipse;whiteSpace=wrap;html=1;aspect=fixed;rounded=1;" vertex="1" parent="1">
          <mxGeometry x="847.5" y="419" width="30" height="30" as="geometry" />
        </mxCell>
        <mxCell id="wFGTanM9Hy6jvcVWlgYb-110" value="z" style="ellipse;whiteSpace=wrap;html=1;aspect=fixed;rounded=1;" vertex="1" parent="1">
          <mxGeometry x="764.12" y="419" width="30" height="30" as="geometry" />
        </mxCell>
        <mxCell id="wFGTanM9Hy6jvcVWlgYb-111" value="i" style="ellipse;whiteSpace=wrap;html=1;aspect=fixed;rounded=1;" vertex="1" parent="1">
          <mxGeometry x="806.5" y="419" width="30" height="30" as="geometry" />
        </mxCell>
        <mxCell id="wFGTanM9Hy6jvcVWlgYb-112" value="N" style="ellipse;whiteSpace=wrap;html=1;aspect=fixed;rounded=1;" vertex="1" parent="1">
          <mxGeometry x="888.5" y="419" width="30" height="30" as="geometry" />
        </mxCell>
        <mxCell id="wFGTanM9Hy6jvcVWlgYb-113" value="" style="endArrow=none;html=1;rounded=1;entryX=0.5;entryY=1;entryDx=0;entryDy=0;exitX=0.5;exitY=0;exitDx=0;exitDy=0;" edge="1" parent="1" source="wFGTanM9Hy6jvcVWlgYb-110" target="wFGTanM9Hy6jvcVWlgYb-102">
          <mxGeometry width="50" height="50" relative="1" as="geometry">
            <mxPoint x="613.5" y="529" as="sourcePoint" />
            <mxPoint x="663.5" y="479" as="targetPoint" />
          </mxGeometry>
        </mxCell>
        <mxCell id="wFGTanM9Hy6jvcVWlgYb-114" value="" style="endArrow=none;html=1;rounded=1;entryX=0.5;entryY=1;entryDx=0;entryDy=0;exitX=0.5;exitY=0;exitDx=0;exitDy=0;" edge="1" parent="1" source="wFGTanM9Hy6jvcVWlgYb-111" target="wFGTanM9Hy6jvcVWlgYb-102">
          <mxGeometry width="50" height="50" relative="1" as="geometry">
            <mxPoint x="672.5" y="505" as="sourcePoint" />
            <mxPoint x="722.5" y="455" as="targetPoint" />
          </mxGeometry>
        </mxCell>
        <mxCell id="wFGTanM9Hy6jvcVWlgYb-115" value="" style="endArrow=none;html=1;rounded=1;entryX=0.5;entryY=1;entryDx=0;entryDy=0;exitX=0.5;exitY=0;exitDx=0;exitDy=0;" edge="1" parent="1" source="wFGTanM9Hy6jvcVWlgYb-109" target="wFGTanM9Hy6jvcVWlgYb-102">
          <mxGeometry width="50" height="50" relative="1" as="geometry">
            <mxPoint x="607.5" y="518" as="sourcePoint" />
            <mxPoint x="657.5" y="468" as="targetPoint" />
          </mxGeometry>
        </mxCell>
        <mxCell id="wFGTanM9Hy6jvcVWlgYb-116" value="" style="endArrow=none;html=1;rounded=1;entryX=0.5;entryY=1;entryDx=0;entryDy=0;exitX=0.5;exitY=0;exitDx=0;exitDy=0;" edge="1" parent="1" source="wFGTanM9Hy6jvcVWlgYb-112" target="wFGTanM9Hy6jvcVWlgYb-102">
          <mxGeometry width="50" height="50" relative="1" as="geometry">
            <mxPoint x="697.5" y="512" as="sourcePoint" />
            <mxPoint x="747.5" y="462" as="targetPoint" />
          </mxGeometry>
        </mxCell>
        <mxCell id="wFGTanM9Hy6jvcVWlgYb-117" value=";" style="ellipse;whiteSpace=wrap;html=1;aspect=fixed;rounded=1;" vertex="1" parent="1">
          <mxGeometry x="929.5" y="485" width="30" height="30" as="geometry" />
        </mxCell>
        <mxCell id="wFGTanM9Hy6jvcVWlgYb-118" value="z" style="ellipse;whiteSpace=wrap;html=1;aspect=fixed;rounded=1;" vertex="1" parent="1">
          <mxGeometry x="845.5" y="485" width="30" height="30" as="geometry" />
        </mxCell>
        <mxCell id="wFGTanM9Hy6jvcVWlgYb-119" value="i" style="ellipse;whiteSpace=wrap;html=1;aspect=fixed;rounded=1;" vertex="1" parent="1">
          <mxGeometry x="888.5" y="485" width="30" height="30" as="geometry" />
        </mxCell>
        <mxCell id="wFGTanM9Hy6jvcVWlgYb-120" value="" style="endArrow=none;html=1;rounded=1;entryX=0.5;entryY=1;entryDx=0;entryDy=0;exitX=0.5;exitY=0;exitDx=0;exitDy=0;" edge="1" parent="1" source="wFGTanM9Hy6jvcVWlgYb-118" target="wFGTanM9Hy6jvcVWlgYb-112">
          <mxGeometry width="50" height="50" relative="1" as="geometry">
            <mxPoint x="706.5" y="655" as="sourcePoint" />
            <mxPoint x="747.5" y="493" as="targetPoint" />
          </mxGeometry>
        </mxCell>
        <mxCell id="wFGTanM9Hy6jvcVWlgYb-121" value="" style="endArrow=none;html=1;rounded=1;entryX=0.5;entryY=1;entryDx=0;entryDy=0;exitX=0.5;exitY=0;exitDx=0;exitDy=0;" edge="1" parent="1" source="wFGTanM9Hy6jvcVWlgYb-119" target="wFGTanM9Hy6jvcVWlgYb-112">
          <mxGeometry width="50" height="50" relative="1" as="geometry">
            <mxPoint x="674.5" y="561" as="sourcePoint" />
            <mxPoint x="724.5" y="511" as="targetPoint" />
          </mxGeometry>
        </mxCell>
        <mxCell id="wFGTanM9Hy6jvcVWlgYb-122" value="" style="endArrow=none;html=1;rounded=1;entryX=0.5;entryY=1;entryDx=0;entryDy=0;exitX=0.5;exitY=0;exitDx=0;exitDy=0;" edge="1" parent="1" source="wFGTanM9Hy6jvcVWlgYb-117" target="wFGTanM9Hy6jvcVWlgYb-112">
          <mxGeometry width="50" height="50" relative="1" as="geometry">
            <mxPoint x="851.5" y="626" as="sourcePoint" />
            <mxPoint x="901.5" y="576" as="targetPoint" />
          </mxGeometry>
        </mxCell>
        <mxCell id="wFGTanM9Hy6jvcVWlgYb-123" value="" style="endArrow=none;html=1;rounded=1;entryX=0.5;entryY=1;entryDx=0;entryDy=0;exitX=0.5;exitY=0;exitDx=0;exitDy=0;" edge="1" parent="1" source="wFGTanM9Hy6jvcVWlgYb-124" target="wFGTanM9Hy6jvcVWlgYb-112">
          <mxGeometry width="50" height="50" relative="1" as="geometry">
            <mxPoint x="935.5" y="543" as="sourcePoint" />
            <mxPoint x="924.5" y="627" as="targetPoint" />
          </mxGeometry>
        </mxCell>
        <mxCell id="wFGTanM9Hy6jvcVWlgYb-124" value="N" style="ellipse;whiteSpace=wrap;html=1;aspect=fixed;rounded=1;" vertex="1" parent="1">
          <mxGeometry x="1005.5" y="466" width="30" height="30" as="geometry" />
        </mxCell>
        <mxCell id="wFGTanM9Hy6jvcVWlgYb-125" value="=" style="ellipse;whiteSpace=wrap;html=1;aspect=fixed;rounded=1;" vertex="1" parent="1">
          <mxGeometry x="1056.5" y="527" width="30" height="30" as="geometry" />
        </mxCell>
        <mxCell id="wFGTanM9Hy6jvcVWlgYb-126" value="E" style="ellipse;whiteSpace=wrap;html=1;aspect=fixed;rounded=1;" vertex="1" parent="1">
          <mxGeometry x="1099.5" y="527" width="30" height="30" as="geometry" />
        </mxCell>
        <mxCell id="wFGTanM9Hy6jvcVWlgYb-127" value="i" style="ellipse;whiteSpace=wrap;html=1;aspect=fixed;rounded=1;" vertex="1" parent="1">
          <mxGeometry x="1013.5" y="527" width="30" height="30" as="geometry" />
        </mxCell>
        <mxCell id="wFGTanM9Hy6jvcVWlgYb-128" value="l" style="ellipse;whiteSpace=wrap;html=1;aspect=fixed;rounded=1;" vertex="1" parent="1">
          <mxGeometry x="1099.5" y="585" width="30" height="30" as="geometry" />
        </mxCell>
        <mxCell id="wFGTanM9Hy6jvcVWlgYb-129" value="" style="endArrow=none;html=1;rounded=1;entryX=0.5;entryY=1;entryDx=0;entryDy=0;exitX=0.5;exitY=0;exitDx=0;exitDy=0;" edge="1" parent="1" source="wFGTanM9Hy6jvcVWlgYb-128" target="wFGTanM9Hy6jvcVWlgYb-126">
          <mxGeometry width="50" height="50" relative="1" as="geometry">
            <mxPoint x="1198.5" y="475.5" as="sourcePoint" />
            <mxPoint x="1248.5" y="425.5" as="targetPoint" />
          </mxGeometry>
        </mxCell>
        <mxCell id="wFGTanM9Hy6jvcVWlgYb-130" value=";" style="ellipse;whiteSpace=wrap;html=1;aspect=fixed;rounded=1;" vertex="1" parent="1">
          <mxGeometry x="1141.5" y="527" width="30" height="30" as="geometry" />
        </mxCell>
        <mxCell id="wFGTanM9Hy6jvcVWlgYb-131" value="" style="endArrow=none;html=1;rounded=1;entryX=0.5;entryY=1;entryDx=0;entryDy=0;exitX=0.5;exitY=0;exitDx=0;exitDy=0;" edge="1" parent="1" source="wFGTanM9Hy6jvcVWlgYb-136" target="wFGTanM9Hy6jvcVWlgYb-124">
          <mxGeometry width="50" height="50" relative="1" as="geometry">
            <mxPoint x="912.5" y="578" as="sourcePoint" />
            <mxPoint x="931.5" y="687.5" as="targetPoint" />
          </mxGeometry>
        </mxCell>
        <mxCell id="wFGTanM9Hy6jvcVWlgYb-132" value="" style="endArrow=none;html=1;rounded=1;entryX=0.5;entryY=1;entryDx=0;entryDy=0;exitX=0.5;exitY=0;exitDx=0;exitDy=0;" edge="1" parent="1" source="wFGTanM9Hy6jvcVWlgYb-127" target="wFGTanM9Hy6jvcVWlgYb-124">
          <mxGeometry width="50" height="50" relative="1" as="geometry">
            <mxPoint x="1009.5" y="605.5" as="sourcePoint" />
            <mxPoint x="1059.5" y="555.5" as="targetPoint" />
          </mxGeometry>
        </mxCell>
        <mxCell id="wFGTanM9Hy6jvcVWlgYb-133" value="" style="endArrow=none;html=1;rounded=1;entryX=0.5;entryY=1;entryDx=0;entryDy=0;exitX=0.5;exitY=0;exitDx=0;exitDy=0;" edge="1" parent="1" source="wFGTanM9Hy6jvcVWlgYb-125" target="wFGTanM9Hy6jvcVWlgYb-124">
          <mxGeometry width="50" height="50" relative="1" as="geometry">
            <mxPoint x="1079.5" y="597.5" as="sourcePoint" />
            <mxPoint x="1070.5" y="497.5" as="targetPoint" />
          </mxGeometry>
        </mxCell>
        <mxCell id="wFGTanM9Hy6jvcVWlgYb-134" value="" style="endArrow=none;html=1;rounded=1;entryX=0.5;entryY=1;entryDx=0;entryDy=0;exitX=0.5;exitY=0;exitDx=0;exitDy=0;" edge="1" parent="1" source="wFGTanM9Hy6jvcVWlgYb-126" target="wFGTanM9Hy6jvcVWlgYb-124">
          <mxGeometry width="50" height="50" relative="1" as="geometry">
            <mxPoint x="1044.5" y="662.5" as="sourcePoint" />
            <mxPoint x="1094.5" y="612.5" as="targetPoint" />
          </mxGeometry>
        </mxCell>
        <mxCell id="wFGTanM9Hy6jvcVWlgYb-135" value="" style="endArrow=none;html=1;rounded=1;entryX=0.5;entryY=1;entryDx=0;entryDy=0;exitX=0.5;exitY=0;exitDx=0;exitDy=0;" edge="1" parent="1" source="wFGTanM9Hy6jvcVWlgYb-130" target="wFGTanM9Hy6jvcVWlgYb-124">
          <mxGeometry width="50" height="50" relative="1" as="geometry">
            <mxPoint x="1125.5" y="508.5" as="sourcePoint" />
            <mxPoint x="1175.5" y="458.5" as="targetPoint" />
          </mxGeometry>
        </mxCell>
        <mxCell id="wFGTanM9Hy6jvcVWlgYb-136" value="t" style="ellipse;whiteSpace=wrap;html=1;aspect=fixed;rounded=1;" vertex="1" parent="1">
          <mxGeometry x="970.5" y="527" width="30" height="30" as="geometry" />
        </mxCell>
        <mxCell id="wFGTanM9Hy6jvcVWlgYb-137" value="N" style="ellipse;whiteSpace=wrap;html=1;aspect=fixed;rounded=1;" vertex="1" parent="1">
          <mxGeometry x="1199.5" y="525.5" width="30" height="30" as="geometry" />
        </mxCell>
        <mxCell id="wFGTanM9Hy6jvcVWlgYb-138" value="=" style="ellipse;whiteSpace=wrap;html=1;aspect=fixed;rounded=1;" vertex="1" parent="1">
          <mxGeometry x="1250.5" y="586.5" width="30" height="30" as="geometry" />
        </mxCell>
        <mxCell id="wFGTanM9Hy6jvcVWlgYb-139" value="E" style="ellipse;whiteSpace=wrap;html=1;aspect=fixed;rounded=1;" vertex="1" parent="1">
          <mxGeometry x="1293.5" y="586.5" width="30" height="30" as="geometry" />
        </mxCell>
        <mxCell id="wFGTanM9Hy6jvcVWlgYb-140" value="i" style="ellipse;whiteSpace=wrap;html=1;aspect=fixed;rounded=1;" vertex="1" parent="1">
          <mxGeometry x="1207.5" y="586.5" width="30" height="30" as="geometry" />
        </mxCell>
        <mxCell id="wFGTanM9Hy6jvcVWlgYb-141" value="l" style="ellipse;whiteSpace=wrap;html=1;aspect=fixed;rounded=1;" vertex="1" parent="1">
          <mxGeometry x="1293.5" y="644.5" width="30" height="30" as="geometry" />
        </mxCell>
        <mxCell id="wFGTanM9Hy6jvcVWlgYb-142" value="" style="endArrow=none;html=1;rounded=1;entryX=0.5;entryY=1;entryDx=0;entryDy=0;exitX=0.5;exitY=0;exitDx=0;exitDy=0;" edge="1" parent="1" source="wFGTanM9Hy6jvcVWlgYb-141" target="wFGTanM9Hy6jvcVWlgYb-139">
          <mxGeometry width="50" height="50" relative="1" as="geometry">
            <mxPoint x="1392.5" y="535" as="sourcePoint" />
            <mxPoint x="1442.5" y="485" as="targetPoint" />
          </mxGeometry>
        </mxCell>
        <mxCell id="wFGTanM9Hy6jvcVWlgYb-143" value=";" style="ellipse;whiteSpace=wrap;html=1;aspect=fixed;rounded=1;" vertex="1" parent="1">
          <mxGeometry x="1335.5" y="586.5" width="30" height="30" as="geometry" />
        </mxCell>
        <mxCell id="wFGTanM9Hy6jvcVWlgYb-144" value="" style="endArrow=none;html=1;rounded=1;entryX=0.5;entryY=1;entryDx=0;entryDy=0;exitX=0.5;exitY=0;exitDx=0;exitDy=0;" edge="1" parent="1" source="wFGTanM9Hy6jvcVWlgYb-149" target="wFGTanM9Hy6jvcVWlgYb-137">
          <mxGeometry width="50" height="50" relative="1" as="geometry">
            <mxPoint x="1172.5" y="586.5" as="sourcePoint" />
            <mxPoint x="1191.5" y="696" as="targetPoint" />
          </mxGeometry>
        </mxCell>
        <mxCell id="wFGTanM9Hy6jvcVWlgYb-145" value="" style="endArrow=none;html=1;rounded=1;entryX=0.5;entryY=1;entryDx=0;entryDy=0;exitX=0.5;exitY=0;exitDx=0;exitDy=0;" edge="1" parent="1" source="wFGTanM9Hy6jvcVWlgYb-140" target="wFGTanM9Hy6jvcVWlgYb-137">
          <mxGeometry width="50" height="50" relative="1" as="geometry">
            <mxPoint x="1203.5" y="665" as="sourcePoint" />
            <mxPoint x="1253.5" y="615" as="targetPoint" />
          </mxGeometry>
        </mxCell>
        <mxCell id="wFGTanM9Hy6jvcVWlgYb-146" value="" style="endArrow=none;html=1;rounded=1;entryX=0.5;entryY=1;entryDx=0;entryDy=0;exitX=0.5;exitY=0;exitDx=0;exitDy=0;" edge="1" parent="1" source="wFGTanM9Hy6jvcVWlgYb-138" target="wFGTanM9Hy6jvcVWlgYb-137">
          <mxGeometry width="50" height="50" relative="1" as="geometry">
            <mxPoint x="1273.5" y="657" as="sourcePoint" />
            <mxPoint x="1264.5" y="557" as="targetPoint" />
          </mxGeometry>
        </mxCell>
        <mxCell id="wFGTanM9Hy6jvcVWlgYb-147" value="" style="endArrow=none;html=1;rounded=1;entryX=0.5;entryY=1;entryDx=0;entryDy=0;exitX=0.5;exitY=0;exitDx=0;exitDy=0;" edge="1" parent="1" source="wFGTanM9Hy6jvcVWlgYb-139" target="wFGTanM9Hy6jvcVWlgYb-137">
          <mxGeometry width="50" height="50" relative="1" as="geometry">
            <mxPoint x="1238.5" y="722" as="sourcePoint" />
            <mxPoint x="1288.5" y="672" as="targetPoint" />
          </mxGeometry>
        </mxCell>
        <mxCell id="wFGTanM9Hy6jvcVWlgYb-148" value="" style="endArrow=none;html=1;rounded=1;entryX=0.5;entryY=1;entryDx=0;entryDy=0;exitX=0.5;exitY=0;exitDx=0;exitDy=0;" edge="1" parent="1" source="wFGTanM9Hy6jvcVWlgYb-143" target="wFGTanM9Hy6jvcVWlgYb-137">
          <mxGeometry width="50" height="50" relative="1" as="geometry">
            <mxPoint x="1319.5" y="568" as="sourcePoint" />
            <mxPoint x="1369.5" y="518" as="targetPoint" />
          </mxGeometry>
        </mxCell>
        <mxCell id="wFGTanM9Hy6jvcVWlgYb-149" value="t" style="ellipse;whiteSpace=wrap;html=1;aspect=fixed;rounded=1;" vertex="1" parent="1">
          <mxGeometry x="1155.5" y="586.5" width="30" height="30" as="geometry" />
        </mxCell>
        <mxCell id="wFGTanM9Hy6jvcVWlgYb-150" value="" style="endArrow=none;html=1;rounded=1;entryX=0.5;entryY=1;entryDx=0;entryDy=0;exitX=0.5;exitY=0;exitDx=0;exitDy=0;" edge="1" parent="1" source="wFGTanM9Hy6jvcVWlgYb-137" target="wFGTanM9Hy6jvcVWlgYb-124">
          <mxGeometry width="50" height="50" relative="1" as="geometry">
            <mxPoint x="1211.5" y="537" as="sourcePoint" />
            <mxPoint x="1291.5" y="433" as="targetPoint" />
          </mxGeometry>
        </mxCell>
        <mxCell id="wFGTanM9Hy6jvcVWlgYb-151" value="N" style="ellipse;whiteSpace=wrap;html=1;aspect=fixed;rounded=1;" vertex="1" parent="1">
          <mxGeometry x="1400" y="582" width="30" height="30" as="geometry" />
        </mxCell>
        <mxCell id="wFGTanM9Hy6jvcVWlgYb-152" value="=" style="ellipse;whiteSpace=wrap;html=1;aspect=fixed;rounded=1;" vertex="1" parent="1">
          <mxGeometry x="1440" y="643" width="30" height="30" as="geometry" />
        </mxCell>
        <mxCell id="wFGTanM9Hy6jvcVWlgYb-153" value="E" style="ellipse;whiteSpace=wrap;html=1;aspect=fixed;rounded=1;" vertex="1" parent="1">
          <mxGeometry x="1483" y="643" width="30" height="30" as="geometry" />
        </mxCell>
        <mxCell id="wFGTanM9Hy6jvcVWlgYb-154" value=";" style="ellipse;whiteSpace=wrap;html=1;aspect=fixed;rounded=1;" vertex="1" parent="1">
          <mxGeometry x="1531" y="643" width="30" height="30" as="geometry" />
        </mxCell>
        <mxCell id="wFGTanM9Hy6jvcVWlgYb-155" value="i" style="ellipse;whiteSpace=wrap;html=1;aspect=fixed;rounded=1;" vertex="1" parent="1">
          <mxGeometry x="1402" y="643" width="30" height="30" as="geometry" />
        </mxCell>
        <mxCell id="wFGTanM9Hy6jvcVWlgYb-156" value="t" style="ellipse;whiteSpace=wrap;html=1;aspect=fixed;rounded=1;" vertex="1" parent="1">
          <mxGeometry x="1358" y="644" width="30" height="30" as="geometry" />
        </mxCell>
        <mxCell id="wFGTanM9Hy6jvcVWlgYb-157" value="M" style="ellipse;whiteSpace=wrap;html=1;aspect=fixed;rounded=1;" vertex="1" parent="1">
          <mxGeometry x="1474" y="696" width="30" height="30" as="geometry" />
        </mxCell>
        <mxCell id="wFGTanM9Hy6jvcVWlgYb-158" value="i" style="ellipse;whiteSpace=wrap;html=1;aspect=fixed;rounded=1;" vertex="1" parent="1">
          <mxGeometry x="1432" y="693" width="30" height="30" as="geometry" />
        </mxCell>
        <mxCell id="wFGTanM9Hy6jvcVWlgYb-159" value="E" style="ellipse;whiteSpace=wrap;html=1;aspect=fixed;rounded=1;" vertex="1" parent="1">
          <mxGeometry x="1474" y="748" width="30" height="30" as="geometry" />
        </mxCell>
        <mxCell id="wFGTanM9Hy6jvcVWlgYb-160" value="v" style="ellipse;whiteSpace=wrap;html=1;aspect=fixed;rounded=1;" vertex="1" parent="1">
          <mxGeometry x="1432" y="743" width="30" height="30" as="geometry" />
        </mxCell>
        <mxCell id="wFGTanM9Hy6jvcVWlgYb-161" value="i" style="ellipse;whiteSpace=wrap;html=1;aspect=fixed;rounded=1;" vertex="1" parent="1">
          <mxGeometry x="1474" y="800" width="30" height="30" as="geometry" />
        </mxCell>
        <mxCell id="wFGTanM9Hy6jvcVWlgYb-162" value="" style="endArrow=none;html=1;rounded=1;entryX=0.5;entryY=1;entryDx=0;entryDy=0;exitX=0.5;exitY=0;exitDx=0;exitDy=0;" edge="1" parent="1" source="wFGTanM9Hy6jvcVWlgYb-156" target="wFGTanM9Hy6jvcVWlgYb-151">
          <mxGeometry width="50" height="50" relative="1" as="geometry">
            <mxPoint x="1374" y="643" as="sourcePoint" />
            <mxPoint x="1380.62" y="689" as="targetPoint" />
          </mxGeometry>
        </mxCell>
        <mxCell id="wFGTanM9Hy6jvcVWlgYb-163" value="" style="endArrow=none;html=1;rounded=1;entryX=0.5;entryY=1;entryDx=0;entryDy=0;exitX=0.5;exitY=0;exitDx=0;exitDy=0;" edge="1" parent="1" source="wFGTanM9Hy6jvcVWlgYb-155" target="wFGTanM9Hy6jvcVWlgYb-151">
          <mxGeometry width="50" height="50" relative="1" as="geometry">
            <mxPoint x="1309" y="745" as="sourcePoint" />
            <mxPoint x="1359" y="695" as="targetPoint" />
          </mxGeometry>
        </mxCell>
        <mxCell id="wFGTanM9Hy6jvcVWlgYb-164" value="" style="endArrow=none;html=1;rounded=1;entryX=0.5;entryY=1;entryDx=0;entryDy=0;exitX=0.5;exitY=0;exitDx=0;exitDy=0;" edge="1" parent="1" source="wFGTanM9Hy6jvcVWlgYb-152" target="wFGTanM9Hy6jvcVWlgYb-151">
          <mxGeometry width="50" height="50" relative="1" as="geometry">
            <mxPoint x="1299" y="757" as="sourcePoint" />
            <mxPoint x="1349" y="707" as="targetPoint" />
          </mxGeometry>
        </mxCell>
        <mxCell id="wFGTanM9Hy6jvcVWlgYb-165" value="" style="endArrow=none;html=1;rounded=1;entryX=0.5;entryY=1;entryDx=0;entryDy=0;exitX=0.5;exitY=0;exitDx=0;exitDy=0;" edge="1" parent="1" source="wFGTanM9Hy6jvcVWlgYb-153" target="wFGTanM9Hy6jvcVWlgYb-151">
          <mxGeometry width="50" height="50" relative="1" as="geometry">
            <mxPoint x="1310" y="745" as="sourcePoint" />
            <mxPoint x="1360" y="695" as="targetPoint" />
          </mxGeometry>
        </mxCell>
        <mxCell id="wFGTanM9Hy6jvcVWlgYb-166" value="" style="endArrow=none;html=1;rounded=1;entryX=0.5;entryY=1;entryDx=0;entryDy=0;exitX=0.5;exitY=0;exitDx=0;exitDy=0;" edge="1" parent="1" source="wFGTanM9Hy6jvcVWlgYb-154" target="wFGTanM9Hy6jvcVWlgYb-151">
          <mxGeometry width="50" height="50" relative="1" as="geometry">
            <mxPoint x="1298" y="733" as="sourcePoint" />
            <mxPoint x="1348" y="683" as="targetPoint" />
          </mxGeometry>
        </mxCell>
        <mxCell id="wFGTanM9Hy6jvcVWlgYb-167" value="" style="endArrow=none;html=1;rounded=1;entryX=0.5;entryY=1;entryDx=0;entryDy=0;exitX=0.5;exitY=0;exitDx=0;exitDy=0;" edge="1" parent="1" source="wFGTanM9Hy6jvcVWlgYb-158" target="wFGTanM9Hy6jvcVWlgYb-153">
          <mxGeometry width="50" height="50" relative="1" as="geometry">
            <mxPoint x="1269" y="750" as="sourcePoint" />
            <mxPoint x="1319" y="700" as="targetPoint" />
          </mxGeometry>
        </mxCell>
        <mxCell id="wFGTanM9Hy6jvcVWlgYb-168" value="" style="endArrow=none;html=1;rounded=1;entryX=0.5;entryY=1;entryDx=0;entryDy=0;exitX=0.5;exitY=0;exitDx=0;exitDy=0;" edge="1" parent="1" source="wFGTanM9Hy6jvcVWlgYb-157" target="wFGTanM9Hy6jvcVWlgYb-153">
          <mxGeometry width="50" height="50" relative="1" as="geometry">
            <mxPoint x="1263" y="780" as="sourcePoint" />
            <mxPoint x="1313" y="730" as="targetPoint" />
          </mxGeometry>
        </mxCell>
        <mxCell id="wFGTanM9Hy6jvcVWlgYb-169" value="" style="endArrow=none;html=1;rounded=1;entryX=0.5;entryY=1;entryDx=0;entryDy=0;exitX=0.5;exitY=0;exitDx=0;exitDy=0;" edge="1" parent="1" source="wFGTanM9Hy6jvcVWlgYb-160" target="wFGTanM9Hy6jvcVWlgYb-157">
          <mxGeometry width="50" height="50" relative="1" as="geometry">
            <mxPoint x="1348" y="828" as="sourcePoint" />
            <mxPoint x="1398" y="778" as="targetPoint" />
          </mxGeometry>
        </mxCell>
        <mxCell id="wFGTanM9Hy6jvcVWlgYb-170" value="" style="endArrow=none;html=1;rounded=1;entryX=0.5;entryY=1;entryDx=0;entryDy=0;exitX=0.5;exitY=0;exitDx=0;exitDy=0;" edge="1" parent="1" source="wFGTanM9Hy6jvcVWlgYb-159" target="wFGTanM9Hy6jvcVWlgYb-157">
          <mxGeometry width="50" height="50" relative="1" as="geometry">
            <mxPoint x="1322" y="839" as="sourcePoint" />
            <mxPoint x="1372" y="789" as="targetPoint" />
          </mxGeometry>
        </mxCell>
        <mxCell id="wFGTanM9Hy6jvcVWlgYb-171" value="" style="endArrow=none;html=1;rounded=1;entryX=0.5;entryY=1;entryDx=0;entryDy=0;exitX=0.5;exitY=0;exitDx=0;exitDy=0;" edge="1" parent="1" source="wFGTanM9Hy6jvcVWlgYb-161" target="wFGTanM9Hy6jvcVWlgYb-159">
          <mxGeometry width="50" height="50" relative="1" as="geometry">
            <mxPoint x="1365" y="870" as="sourcePoint" />
            <mxPoint x="1415" y="820" as="targetPoint" />
          </mxGeometry>
        </mxCell>
        <mxCell id="wFGTanM9Hy6jvcVWlgYb-172" value="" style="endArrow=none;html=1;rounded=1;exitX=0.5;exitY=1;exitDx=0;exitDy=0;entryX=0.5;entryY=0;entryDx=0;entryDy=0;" edge="1" parent="1" source="wFGTanM9Hy6jvcVWlgYb-137" target="wFGTanM9Hy6jvcVWlgYb-151">
          <mxGeometry width="50" height="50" relative="1" as="geometry">
            <mxPoint x="1283.5" y="760" as="sourcePoint" />
            <mxPoint x="1333.5" y="710" as="targetPoint" />
          </mxGeometry>
        </mxCell>
        <mxCell id="wFGTanM9Hy6jvcVWlgYb-173" value="N" style="ellipse;whiteSpace=wrap;html=1;aspect=fixed;rounded=1;" vertex="1" parent="1">
          <mxGeometry x="1589.5" y="640" width="30" height="30" as="geometry" />
        </mxCell>
        <mxCell id="wFGTanM9Hy6jvcVWlgYb-174" value=";" style="ellipse;whiteSpace=wrap;html=1;aspect=fixed;rounded=1;" vertex="1" parent="1">
          <mxGeometry x="1648.5" y="702" width="30" height="30" as="geometry" />
        </mxCell>
        <mxCell id="wFGTanM9Hy6jvcVWlgYb-175" value="z" style="ellipse;whiteSpace=wrap;html=1;aspect=fixed;rounded=1;" vertex="1" parent="1">
          <mxGeometry x="1564.5" y="702" width="30" height="30" as="geometry" />
        </mxCell>
        <mxCell id="wFGTanM9Hy6jvcVWlgYb-176" value="i" style="ellipse;whiteSpace=wrap;html=1;aspect=fixed;rounded=1;" vertex="1" parent="1">
          <mxGeometry x="1607.5" y="702" width="30" height="30" as="geometry" />
        </mxCell>
        <mxCell id="wFGTanM9Hy6jvcVWlgYb-177" value="" style="endArrow=none;html=1;rounded=1;entryX=0.5;entryY=1;entryDx=0;entryDy=0;exitX=0.5;exitY=0;exitDx=0;exitDy=0;" edge="1" parent="1" source="wFGTanM9Hy6jvcVWlgYb-175" target="wFGTanM9Hy6jvcVWlgYb-173">
          <mxGeometry width="50" height="50" relative="1" as="geometry">
            <mxPoint x="1544.5" y="745" as="sourcePoint" />
            <mxPoint x="1594.5" y="695" as="targetPoint" />
          </mxGeometry>
        </mxCell>
        <mxCell id="wFGTanM9Hy6jvcVWlgYb-178" value="" style="endArrow=none;html=1;rounded=1;entryX=0.5;entryY=1;entryDx=0;entryDy=0;exitX=0.5;exitY=0;exitDx=0;exitDy=0;" edge="1" parent="1" source="wFGTanM9Hy6jvcVWlgYb-176" target="wFGTanM9Hy6jvcVWlgYb-173">
          <mxGeometry width="50" height="50" relative="1" as="geometry">
            <mxPoint x="1604.5" y="798" as="sourcePoint" />
            <mxPoint x="1654.5" y="748" as="targetPoint" />
          </mxGeometry>
        </mxCell>
        <mxCell id="wFGTanM9Hy6jvcVWlgYb-179" value="" style="endArrow=none;html=1;rounded=1;entryX=0.5;entryY=1;entryDx=0;entryDy=0;exitX=0.5;exitY=0;exitDx=0;exitDy=0;" edge="1" parent="1" source="wFGTanM9Hy6jvcVWlgYb-174" target="wFGTanM9Hy6jvcVWlgYb-173">
          <mxGeometry width="50" height="50" relative="1" as="geometry">
            <mxPoint x="1617.5" y="796" as="sourcePoint" />
            <mxPoint x="1667.5" y="746" as="targetPoint" />
          </mxGeometry>
        </mxCell>
        <mxCell id="wFGTanM9Hy6jvcVWlgYb-180" value="3" style="ellipse;whiteSpace=wrap;html=1;aspect=fixed;rounded=1;" vertex="1" parent="1">
          <mxGeometry x="1689.5" y="702" width="30" height="30" as="geometry" />
        </mxCell>
        <mxCell id="wFGTanM9Hy6jvcVWlgYb-181" value="" style="endArrow=none;html=1;rounded=1;entryX=0.5;entryY=1;entryDx=0;entryDy=0;exitX=0.5;exitY=0;exitDx=0;exitDy=0;" edge="1" parent="1" source="wFGTanM9Hy6jvcVWlgYb-180" target="wFGTanM9Hy6jvcVWlgYb-173">
          <mxGeometry width="50" height="50" relative="1" as="geometry">
            <mxPoint x="1639.5" y="822" as="sourcePoint" />
            <mxPoint x="1689.5" y="772" as="targetPoint" />
          </mxGeometry>
        </mxCell>
        <mxCell id="wFGTanM9Hy6jvcVWlgYb-182" value="" style="endArrow=none;html=1;rounded=1;entryX=0.5;entryY=1;entryDx=0;entryDy=0;exitX=0.5;exitY=0;exitDx=0;exitDy=0;" edge="1" parent="1" source="wFGTanM9Hy6jvcVWlgYb-173" target="wFGTanM9Hy6jvcVWlgYb-151">
          <mxGeometry width="50" height="50" relative="1" as="geometry">
            <mxPoint x="1514.5" y="880" as="sourcePoint" />
            <mxPoint x="1564.5" y="830" as="targetPoint" />
          </mxGeometry>
        </mxCell>
        <mxCell id="wFGTanM9Hy6jvcVWlgYb-183" value="3" style="ellipse;whiteSpace=wrap;html=1;aspect=fixed;rounded=1;" vertex="1" parent="1">
          <mxGeometry x="256" y="485" width="30" height="30" as="geometry" />
        </mxCell>
        <mxCell id="wFGTanM9Hy6jvcVWlgYb-184" value=";" style="ellipse;whiteSpace=wrap;html=1;aspect=fixed;rounded=1;" vertex="1" parent="1">
          <mxGeometry x="315" y="547" width="30" height="30" as="geometry" />
        </mxCell>
        <mxCell id="wFGTanM9Hy6jvcVWlgYb-185" value="z" style="ellipse;whiteSpace=wrap;html=1;aspect=fixed;rounded=1;" vertex="1" parent="1">
          <mxGeometry x="231" y="547" width="30" height="30" as="geometry" />
        </mxCell>
        <mxCell id="wFGTanM9Hy6jvcVWlgYb-186" value="i" style="ellipse;whiteSpace=wrap;html=1;aspect=fixed;rounded=1;" vertex="1" parent="1">
          <mxGeometry x="274" y="547" width="30" height="30" as="geometry" />
        </mxCell>
        <mxCell id="wFGTanM9Hy6jvcVWlgYb-187" value="" style="endArrow=none;html=1;rounded=1;entryX=0.5;entryY=1;entryDx=0;entryDy=0;exitX=0.5;exitY=0;exitDx=0;exitDy=0;" edge="1" parent="1" source="wFGTanM9Hy6jvcVWlgYb-185" target="wFGTanM9Hy6jvcVWlgYb-183">
          <mxGeometry width="50" height="50" relative="1" as="geometry">
            <mxPoint x="211" y="590" as="sourcePoint" />
            <mxPoint x="261" y="540" as="targetPoint" />
          </mxGeometry>
        </mxCell>
        <mxCell id="wFGTanM9Hy6jvcVWlgYb-188" value="" style="endArrow=none;html=1;rounded=1;entryX=0.5;entryY=1;entryDx=0;entryDy=0;exitX=0.5;exitY=0;exitDx=0;exitDy=0;" edge="1" parent="1" source="wFGTanM9Hy6jvcVWlgYb-186" target="wFGTanM9Hy6jvcVWlgYb-183">
          <mxGeometry width="50" height="50" relative="1" as="geometry">
            <mxPoint x="271" y="643" as="sourcePoint" />
            <mxPoint x="321" y="593" as="targetPoint" />
          </mxGeometry>
        </mxCell>
        <mxCell id="wFGTanM9Hy6jvcVWlgYb-189" value="" style="endArrow=none;html=1;rounded=1;entryX=0.5;entryY=1;entryDx=0;entryDy=0;exitX=0.5;exitY=0;exitDx=0;exitDy=0;" edge="1" parent="1" source="wFGTanM9Hy6jvcVWlgYb-184" target="wFGTanM9Hy6jvcVWlgYb-183">
          <mxGeometry width="50" height="50" relative="1" as="geometry">
            <mxPoint x="284" y="641" as="sourcePoint" />
            <mxPoint x="334" y="591" as="targetPoint" />
          </mxGeometry>
        </mxCell>
        <mxCell id="wFGTanM9Hy6jvcVWlgYb-190" value="" style="endArrow=none;html=1;rounded=1;entryX=0.5;entryY=1;entryDx=0;entryDy=0;exitX=0.5;exitY=0;exitDx=0;exitDy=0;" edge="1" parent="1" source="wFGTanM9Hy6jvcVWlgYb-191" target="wFGTanM9Hy6jvcVWlgYb-183">
          <mxGeometry width="50" height="50" relative="1" as="geometry">
            <mxPoint x="371" y="547" as="sourcePoint" />
            <mxPoint x="356" y="617" as="targetPoint" />
          </mxGeometry>
        </mxCell>
        <mxCell id="wFGTanM9Hy6jvcVWlgYb-191" value="N" style="ellipse;whiteSpace=wrap;html=1;aspect=fixed;rounded=1;" vertex="1" parent="1">
          <mxGeometry x="357.5" y="544" width="30" height="30" as="geometry" />
        </mxCell>
        <mxCell id="wFGTanM9Hy6jvcVWlgYb-192" value=";" style="ellipse;whiteSpace=wrap;html=1;aspect=fixed;rounded=1;" vertex="1" parent="1">
          <mxGeometry x="416.5" y="606" width="30" height="30" as="geometry" />
        </mxCell>
        <mxCell id="wFGTanM9Hy6jvcVWlgYb-193" value="z" style="ellipse;whiteSpace=wrap;html=1;aspect=fixed;rounded=1;" vertex="1" parent="1">
          <mxGeometry x="332.5" y="606" width="30" height="30" as="geometry" />
        </mxCell>
        <mxCell id="wFGTanM9Hy6jvcVWlgYb-194" value="i" style="ellipse;whiteSpace=wrap;html=1;aspect=fixed;rounded=1;" vertex="1" parent="1">
          <mxGeometry x="375.5" y="606" width="30" height="30" as="geometry" />
        </mxCell>
        <mxCell id="wFGTanM9Hy6jvcVWlgYb-195" value="" style="endArrow=none;html=1;rounded=1;entryX=0.5;entryY=1;entryDx=0;entryDy=0;exitX=0.5;exitY=0;exitDx=0;exitDy=0;" edge="1" parent="1" source="wFGTanM9Hy6jvcVWlgYb-193" target="wFGTanM9Hy6jvcVWlgYb-191">
          <mxGeometry width="50" height="50" relative="1" as="geometry">
            <mxPoint x="312.5" y="649" as="sourcePoint" />
            <mxPoint x="362.5" y="599" as="targetPoint" />
          </mxGeometry>
        </mxCell>
        <mxCell id="wFGTanM9Hy6jvcVWlgYb-196" value="" style="endArrow=none;html=1;rounded=1;entryX=0.5;entryY=1;entryDx=0;entryDy=0;exitX=0.5;exitY=0;exitDx=0;exitDy=0;" edge="1" parent="1" source="wFGTanM9Hy6jvcVWlgYb-194" target="wFGTanM9Hy6jvcVWlgYb-191">
          <mxGeometry width="50" height="50" relative="1" as="geometry">
            <mxPoint x="372.5" y="702" as="sourcePoint" />
            <mxPoint x="422.5" y="652" as="targetPoint" />
          </mxGeometry>
        </mxCell>
        <mxCell id="wFGTanM9Hy6jvcVWlgYb-197" value="" style="endArrow=none;html=1;rounded=1;entryX=0.5;entryY=1;entryDx=0;entryDy=0;exitX=0.5;exitY=0;exitDx=0;exitDy=0;" edge="1" parent="1" source="wFGTanM9Hy6jvcVWlgYb-192" target="wFGTanM9Hy6jvcVWlgYb-191">
          <mxGeometry width="50" height="50" relative="1" as="geometry">
            <mxPoint x="385.5" y="700" as="sourcePoint" />
            <mxPoint x="435.5" y="650" as="targetPoint" />
          </mxGeometry>
        </mxCell>
        <mxCell id="wFGTanM9Hy6jvcVWlgYb-198" value="" style="endArrow=none;html=1;rounded=1;entryX=0.5;entryY=1;entryDx=0;entryDy=0;exitX=0.5;exitY=0;exitDx=0;exitDy=0;" edge="1" parent="1" source="wFGTanM9Hy6jvcVWlgYb-199" target="wFGTanM9Hy6jvcVWlgYb-191">
          <mxGeometry width="50" height="50" relative="1" as="geometry">
            <mxPoint x="472.5" y="606" as="sourcePoint" />
            <mxPoint x="457.5" y="676" as="targetPoint" />
          </mxGeometry>
        </mxCell>
        <mxCell id="wFGTanM9Hy6jvcVWlgYb-199" value="N" style="ellipse;whiteSpace=wrap;html=1;aspect=fixed;rounded=1;" vertex="1" parent="1">
          <mxGeometry x="462.5" y="606" width="30" height="30" as="geometry" />
        </mxCell>
        <mxCell id="wFGTanM9Hy6jvcVWlgYb-200" value="=" style="ellipse;whiteSpace=wrap;html=1;aspect=fixed;rounded=1;" vertex="1" parent="1">
          <mxGeometry x="513.5" y="667" width="30" height="30" as="geometry" />
        </mxCell>
        <mxCell id="wFGTanM9Hy6jvcVWlgYb-201" value="E" style="ellipse;whiteSpace=wrap;html=1;aspect=fixed;rounded=1;" vertex="1" parent="1">
          <mxGeometry x="556.5" y="667" width="30" height="30" as="geometry" />
        </mxCell>
        <mxCell id="wFGTanM9Hy6jvcVWlgYb-202" value="i" style="ellipse;whiteSpace=wrap;html=1;aspect=fixed;rounded=1;" vertex="1" parent="1">
          <mxGeometry x="470.5" y="667" width="30" height="30" as="geometry" />
        </mxCell>
        <mxCell id="wFGTanM9Hy6jvcVWlgYb-203" value="l" style="ellipse;whiteSpace=wrap;html=1;aspect=fixed;rounded=1;" vertex="1" parent="1">
          <mxGeometry x="556.5" y="725" width="30" height="30" as="geometry" />
        </mxCell>
        <mxCell id="wFGTanM9Hy6jvcVWlgYb-204" value="" style="endArrow=none;html=1;rounded=1;entryX=0.5;entryY=1;entryDx=0;entryDy=0;exitX=0.5;exitY=0;exitDx=0;exitDy=0;" edge="1" parent="1" source="wFGTanM9Hy6jvcVWlgYb-203" target="wFGTanM9Hy6jvcVWlgYb-201">
          <mxGeometry width="50" height="50" relative="1" as="geometry">
            <mxPoint x="655.5" y="615.5" as="sourcePoint" />
            <mxPoint x="705.5" y="565.5" as="targetPoint" />
          </mxGeometry>
        </mxCell>
        <mxCell id="wFGTanM9Hy6jvcVWlgYb-205" value=";" style="ellipse;whiteSpace=wrap;html=1;aspect=fixed;rounded=1;" vertex="1" parent="1">
          <mxGeometry x="598.5" y="667" width="30" height="30" as="geometry" />
        </mxCell>
        <mxCell id="wFGTanM9Hy6jvcVWlgYb-206" value="" style="endArrow=none;html=1;rounded=1;entryX=0.5;entryY=1;entryDx=0;entryDy=0;exitX=0.5;exitY=0;exitDx=0;exitDy=0;" edge="1" parent="1" source="wFGTanM9Hy6jvcVWlgYb-211" target="wFGTanM9Hy6jvcVWlgYb-199">
          <mxGeometry width="50" height="50" relative="1" as="geometry">
            <mxPoint x="435.5" y="667" as="sourcePoint" />
            <mxPoint x="454.5" y="776.5" as="targetPoint" />
          </mxGeometry>
        </mxCell>
        <mxCell id="wFGTanM9Hy6jvcVWlgYb-207" value="" style="endArrow=none;html=1;rounded=1;entryX=0.5;entryY=1;entryDx=0;entryDy=0;exitX=0.5;exitY=0;exitDx=0;exitDy=0;" edge="1" parent="1" source="wFGTanM9Hy6jvcVWlgYb-202" target="wFGTanM9Hy6jvcVWlgYb-199">
          <mxGeometry width="50" height="50" relative="1" as="geometry">
            <mxPoint x="466.5" y="745.5" as="sourcePoint" />
            <mxPoint x="516.5" y="695.5" as="targetPoint" />
          </mxGeometry>
        </mxCell>
        <mxCell id="wFGTanM9Hy6jvcVWlgYb-208" value="" style="endArrow=none;html=1;rounded=1;entryX=0.5;entryY=1;entryDx=0;entryDy=0;exitX=0.5;exitY=0;exitDx=0;exitDy=0;" edge="1" parent="1" source="wFGTanM9Hy6jvcVWlgYb-200" target="wFGTanM9Hy6jvcVWlgYb-199">
          <mxGeometry width="50" height="50" relative="1" as="geometry">
            <mxPoint x="536.5" y="737.5" as="sourcePoint" />
            <mxPoint x="527.5" y="637.5" as="targetPoint" />
          </mxGeometry>
        </mxCell>
        <mxCell id="wFGTanM9Hy6jvcVWlgYb-209" value="" style="endArrow=none;html=1;rounded=1;entryX=0.5;entryY=1;entryDx=0;entryDy=0;exitX=0.5;exitY=0;exitDx=0;exitDy=0;" edge="1" parent="1" source="wFGTanM9Hy6jvcVWlgYb-201" target="wFGTanM9Hy6jvcVWlgYb-199">
          <mxGeometry width="50" height="50" relative="1" as="geometry">
            <mxPoint x="501.5" y="802.5" as="sourcePoint" />
            <mxPoint x="551.5" y="752.5" as="targetPoint" />
          </mxGeometry>
        </mxCell>
        <mxCell id="wFGTanM9Hy6jvcVWlgYb-210" value="" style="endArrow=none;html=1;rounded=1;entryX=0.5;entryY=1;entryDx=0;entryDy=0;exitX=0.5;exitY=0;exitDx=0;exitDy=0;" edge="1" parent="1" source="wFGTanM9Hy6jvcVWlgYb-205" target="wFGTanM9Hy6jvcVWlgYb-199">
          <mxGeometry width="50" height="50" relative="1" as="geometry">
            <mxPoint x="582.5" y="648.5" as="sourcePoint" />
            <mxPoint x="632.5" y="598.5" as="targetPoint" />
          </mxGeometry>
        </mxCell>
        <mxCell id="wFGTanM9Hy6jvcVWlgYb-211" value="t" style="ellipse;whiteSpace=wrap;html=1;aspect=fixed;rounded=1;" vertex="1" parent="1">
          <mxGeometry x="428.5" y="666" width="30" height="30" as="geometry" />
        </mxCell>
        <mxCell id="wFGTanM9Hy6jvcVWlgYb-212" value="N" style="ellipse;whiteSpace=wrap;html=1;aspect=fixed;rounded=1;" vertex="1" parent="1">
          <mxGeometry x="644.5" y="665" width="30" height="30" as="geometry" />
        </mxCell>
        <mxCell id="wFGTanM9Hy6jvcVWlgYb-213" value=";" style="ellipse;whiteSpace=wrap;html=1;aspect=fixed;rounded=1;" vertex="1" parent="1">
          <mxGeometry x="703.5" y="727" width="30" height="30" as="geometry" />
        </mxCell>
        <mxCell id="wFGTanM9Hy6jvcVWlgYb-214" value="z" style="ellipse;whiteSpace=wrap;html=1;aspect=fixed;rounded=1;" vertex="1" parent="1">
          <mxGeometry x="619.5" y="727" width="30" height="30" as="geometry" />
        </mxCell>
        <mxCell id="wFGTanM9Hy6jvcVWlgYb-215" value="i" style="ellipse;whiteSpace=wrap;html=1;aspect=fixed;rounded=1;" vertex="1" parent="1">
          <mxGeometry x="662.5" y="727" width="30" height="30" as="geometry" />
        </mxCell>
        <mxCell id="wFGTanM9Hy6jvcVWlgYb-216" value="" style="endArrow=none;html=1;rounded=1;entryX=0.5;entryY=1;entryDx=0;entryDy=0;exitX=0.5;exitY=0;exitDx=0;exitDy=0;" edge="1" parent="1" source="wFGTanM9Hy6jvcVWlgYb-214" target="wFGTanM9Hy6jvcVWlgYb-212">
          <mxGeometry width="50" height="50" relative="1" as="geometry">
            <mxPoint x="599.5" y="770" as="sourcePoint" />
            <mxPoint x="649.5" y="720" as="targetPoint" />
          </mxGeometry>
        </mxCell>
        <mxCell id="wFGTanM9Hy6jvcVWlgYb-217" value="" style="endArrow=none;html=1;rounded=1;entryX=0.5;entryY=1;entryDx=0;entryDy=0;exitX=0.5;exitY=0;exitDx=0;exitDy=0;" edge="1" parent="1" source="wFGTanM9Hy6jvcVWlgYb-215" target="wFGTanM9Hy6jvcVWlgYb-212">
          <mxGeometry width="50" height="50" relative="1" as="geometry">
            <mxPoint x="659.5" y="823" as="sourcePoint" />
            <mxPoint x="709.5" y="773" as="targetPoint" />
          </mxGeometry>
        </mxCell>
        <mxCell id="wFGTanM9Hy6jvcVWlgYb-218" value="" style="endArrow=none;html=1;rounded=1;entryX=0.5;entryY=1;entryDx=0;entryDy=0;exitX=0.5;exitY=0;exitDx=0;exitDy=0;" edge="1" parent="1" source="wFGTanM9Hy6jvcVWlgYb-213" target="wFGTanM9Hy6jvcVWlgYb-212">
          <mxGeometry width="50" height="50" relative="1" as="geometry">
            <mxPoint x="672.5" y="821" as="sourcePoint" />
            <mxPoint x="722.5" y="771" as="targetPoint" />
          </mxGeometry>
        </mxCell>
        <mxCell id="wFGTanM9Hy6jvcVWlgYb-219" value="" style="endArrow=none;html=1;rounded=1;entryX=0.5;entryY=1;entryDx=0;entryDy=0;exitX=0.5;exitY=0;exitDx=0;exitDy=0;" edge="1" parent="1" source="wFGTanM9Hy6jvcVWlgYb-221" target="wFGTanM9Hy6jvcVWlgYb-212">
          <mxGeometry width="50" height="50" relative="1" as="geometry">
            <mxPoint x="764.5" y="727" as="sourcePoint" />
            <mxPoint x="744.5" y="797" as="targetPoint" />
          </mxGeometry>
        </mxCell>
        <mxCell id="wFGTanM9Hy6jvcVWlgYb-220" value="" style="endArrow=none;html=1;rounded=1;entryX=0.5;entryY=1;entryDx=0;entryDy=0;exitX=0.5;exitY=0;exitDx=0;exitDy=0;" edge="1" parent="1" source="wFGTanM9Hy6jvcVWlgYb-212" target="wFGTanM9Hy6jvcVWlgYb-199">
          <mxGeometry width="50" height="50" relative="1" as="geometry">
            <mxPoint x="474.5" y="833" as="sourcePoint" />
            <mxPoint x="524.5" y="783" as="targetPoint" />
          </mxGeometry>
        </mxCell>
        <mxCell id="wFGTanM9Hy6jvcVWlgYb-221" value="N" style="ellipse;whiteSpace=wrap;html=1;aspect=fixed;rounded=1;" vertex="1" parent="1">
          <mxGeometry x="751.12" y="727" width="30" height="30" as="geometry" />
        </mxCell>
        <mxCell id="wFGTanM9Hy6jvcVWlgYb-222" value="=" style="ellipse;whiteSpace=wrap;html=1;aspect=fixed;rounded=1;" vertex="1" parent="1">
          <mxGeometry x="802.12" y="788" width="30" height="30" as="geometry" />
        </mxCell>
        <mxCell id="wFGTanM9Hy6jvcVWlgYb-223" value="E" style="ellipse;whiteSpace=wrap;html=1;aspect=fixed;rounded=1;" vertex="1" parent="1">
          <mxGeometry x="845.12" y="788" width="30" height="30" as="geometry" />
        </mxCell>
        <mxCell id="wFGTanM9Hy6jvcVWlgYb-224" value="i" style="ellipse;whiteSpace=wrap;html=1;aspect=fixed;rounded=1;" vertex="1" parent="1">
          <mxGeometry x="759.12" y="788" width="30" height="30" as="geometry" />
        </mxCell>
        <mxCell id="wFGTanM9Hy6jvcVWlgYb-225" value="l" style="ellipse;whiteSpace=wrap;html=1;aspect=fixed;rounded=1;" vertex="1" parent="1">
          <mxGeometry x="845.12" y="846" width="30" height="30" as="geometry" />
        </mxCell>
        <mxCell id="wFGTanM9Hy6jvcVWlgYb-226" value="" style="endArrow=none;html=1;rounded=1;entryX=0.5;entryY=1;entryDx=0;entryDy=0;exitX=0.5;exitY=0;exitDx=0;exitDy=0;" edge="1" parent="1" source="wFGTanM9Hy6jvcVWlgYb-225" target="wFGTanM9Hy6jvcVWlgYb-223">
          <mxGeometry width="50" height="50" relative="1" as="geometry">
            <mxPoint x="944.12" y="736.5" as="sourcePoint" />
            <mxPoint x="994.12" y="686.5" as="targetPoint" />
          </mxGeometry>
        </mxCell>
        <mxCell id="wFGTanM9Hy6jvcVWlgYb-227" value=";" style="ellipse;whiteSpace=wrap;html=1;aspect=fixed;rounded=1;" vertex="1" parent="1">
          <mxGeometry x="887.12" y="788" width="30" height="30" as="geometry" />
        </mxCell>
        <mxCell id="wFGTanM9Hy6jvcVWlgYb-228" value="" style="endArrow=none;html=1;rounded=1;entryX=0.5;entryY=1;entryDx=0;entryDy=0;exitX=0.5;exitY=0;exitDx=0;exitDy=0;" edge="1" parent="1" source="wFGTanM9Hy6jvcVWlgYb-233" target="wFGTanM9Hy6jvcVWlgYb-221">
          <mxGeometry width="50" height="50" relative="1" as="geometry">
            <mxPoint x="724.12" y="788" as="sourcePoint" />
            <mxPoint x="743.12" y="897.5" as="targetPoint" />
          </mxGeometry>
        </mxCell>
        <mxCell id="wFGTanM9Hy6jvcVWlgYb-229" value="" style="endArrow=none;html=1;rounded=1;entryX=0.5;entryY=1;entryDx=0;entryDy=0;exitX=0.5;exitY=0;exitDx=0;exitDy=0;" edge="1" parent="1" source="wFGTanM9Hy6jvcVWlgYb-224" target="wFGTanM9Hy6jvcVWlgYb-221">
          <mxGeometry width="50" height="50" relative="1" as="geometry">
            <mxPoint x="755.12" y="866.5" as="sourcePoint" />
            <mxPoint x="805.12" y="816.5" as="targetPoint" />
          </mxGeometry>
        </mxCell>
        <mxCell id="wFGTanM9Hy6jvcVWlgYb-230" value="" style="endArrow=none;html=1;rounded=1;entryX=0.5;entryY=1;entryDx=0;entryDy=0;exitX=0.5;exitY=0;exitDx=0;exitDy=0;" edge="1" parent="1" source="wFGTanM9Hy6jvcVWlgYb-222" target="wFGTanM9Hy6jvcVWlgYb-221">
          <mxGeometry width="50" height="50" relative="1" as="geometry">
            <mxPoint x="825.12" y="858.5" as="sourcePoint" />
            <mxPoint x="816.12" y="758.5" as="targetPoint" />
          </mxGeometry>
        </mxCell>
        <mxCell id="wFGTanM9Hy6jvcVWlgYb-231" value="" style="endArrow=none;html=1;rounded=1;entryX=0.5;entryY=1;entryDx=0;entryDy=0;exitX=0.5;exitY=0;exitDx=0;exitDy=0;" edge="1" parent="1" source="wFGTanM9Hy6jvcVWlgYb-223" target="wFGTanM9Hy6jvcVWlgYb-221">
          <mxGeometry width="50" height="50" relative="1" as="geometry">
            <mxPoint x="790.12" y="923.5" as="sourcePoint" />
            <mxPoint x="840.12" y="873.5" as="targetPoint" />
          </mxGeometry>
        </mxCell>
        <mxCell id="wFGTanM9Hy6jvcVWlgYb-232" value="" style="endArrow=none;html=1;rounded=1;entryX=0.5;entryY=1;entryDx=0;entryDy=0;exitX=0.5;exitY=0;exitDx=0;exitDy=0;" edge="1" parent="1" source="wFGTanM9Hy6jvcVWlgYb-227" target="wFGTanM9Hy6jvcVWlgYb-221">
          <mxGeometry width="50" height="50" relative="1" as="geometry">
            <mxPoint x="871.12" y="769.5" as="sourcePoint" />
            <mxPoint x="921.12" y="719.5" as="targetPoint" />
          </mxGeometry>
        </mxCell>
        <mxCell id="wFGTanM9Hy6jvcVWlgYb-233" value="t" style="ellipse;whiteSpace=wrap;html=1;aspect=fixed;rounded=1;" vertex="1" parent="1">
          <mxGeometry x="717.12" y="787" width="30" height="30" as="geometry" />
        </mxCell>
        <mxCell id="wFGTanM9Hy6jvcVWlgYb-234" value="N" style="ellipse;whiteSpace=wrap;html=1;aspect=fixed;rounded=1;" vertex="1" parent="1">
          <mxGeometry x="942.12" y="781" width="30" height="30" as="geometry" />
        </mxCell>
        <mxCell id="wFGTanM9Hy6jvcVWlgYb-235" value=";" style="ellipse;whiteSpace=wrap;html=1;aspect=fixed;rounded=1;" vertex="1" parent="1">
          <mxGeometry x="1001.12" y="843" width="30" height="30" as="geometry" />
        </mxCell>
        <mxCell id="wFGTanM9Hy6jvcVWlgYb-236" value="z" style="ellipse;whiteSpace=wrap;html=1;aspect=fixed;rounded=1;" vertex="1" parent="1">
          <mxGeometry x="917.12" y="843" width="30" height="30" as="geometry" />
        </mxCell>
        <mxCell id="wFGTanM9Hy6jvcVWlgYb-237" value="i" style="ellipse;whiteSpace=wrap;html=1;aspect=fixed;rounded=1;" vertex="1" parent="1">
          <mxGeometry x="960.12" y="843" width="30" height="30" as="geometry" />
        </mxCell>
        <mxCell id="wFGTanM9Hy6jvcVWlgYb-238" value="" style="endArrow=none;html=1;rounded=1;entryX=0.5;entryY=1;entryDx=0;entryDy=0;exitX=0.5;exitY=0;exitDx=0;exitDy=0;" edge="1" parent="1" source="wFGTanM9Hy6jvcVWlgYb-236" target="wFGTanM9Hy6jvcVWlgYb-234">
          <mxGeometry width="50" height="50" relative="1" as="geometry">
            <mxPoint x="897.12" y="886" as="sourcePoint" />
            <mxPoint x="947.12" y="836" as="targetPoint" />
          </mxGeometry>
        </mxCell>
        <mxCell id="wFGTanM9Hy6jvcVWlgYb-239" value="" style="endArrow=none;html=1;rounded=1;entryX=0.5;entryY=1;entryDx=0;entryDy=0;exitX=0.5;exitY=0;exitDx=0;exitDy=0;" edge="1" parent="1" source="wFGTanM9Hy6jvcVWlgYb-237" target="wFGTanM9Hy6jvcVWlgYb-234">
          <mxGeometry width="50" height="50" relative="1" as="geometry">
            <mxPoint x="957.12" y="939" as="sourcePoint" />
            <mxPoint x="1007.12" y="889" as="targetPoint" />
          </mxGeometry>
        </mxCell>
        <mxCell id="wFGTanM9Hy6jvcVWlgYb-240" value="" style="endArrow=none;html=1;rounded=1;entryX=0.5;entryY=1;entryDx=0;entryDy=0;exitX=0.5;exitY=0;exitDx=0;exitDy=0;" edge="1" parent="1" source="wFGTanM9Hy6jvcVWlgYb-235" target="wFGTanM9Hy6jvcVWlgYb-234">
          <mxGeometry width="50" height="50" relative="1" as="geometry">
            <mxPoint x="970.12" y="937" as="sourcePoint" />
            <mxPoint x="1020.12" y="887" as="targetPoint" />
          </mxGeometry>
        </mxCell>
        <mxCell id="wFGTanM9Hy6jvcVWlgYb-241" value="" style="endArrow=none;html=1;rounded=1;entryX=0.5;entryY=1;entryDx=0;entryDy=0;exitX=0.5;exitY=0;exitDx=0;exitDy=0;" edge="1" parent="1" source="wFGTanM9Hy6jvcVWlgYb-234" target="wFGTanM9Hy6jvcVWlgYb-221">
          <mxGeometry width="50" height="50" relative="1" as="geometry">
            <mxPoint x="777.5" y="914" as="sourcePoint" />
            <mxPoint x="827.5" y="864" as="targetPoint" />
          </mxGeometry>
        </mxCell>
        <mxCell id="wFGTanM9Hy6jvcVWlgYb-242" value="N" style="ellipse;whiteSpace=wrap;html=1;aspect=fixed;rounded=1;" vertex="1" parent="1">
          <mxGeometry x="1055.5" y="841" width="30" height="30" as="geometry" />
        </mxCell>
        <mxCell id="wFGTanM9Hy6jvcVWlgYb-243" value="=" style="ellipse;whiteSpace=wrap;html=1;aspect=fixed;rounded=1;" vertex="1" parent="1">
          <mxGeometry x="1106.5" y="902" width="30" height="30" as="geometry" />
        </mxCell>
        <mxCell id="wFGTanM9Hy6jvcVWlgYb-244" value="E" style="ellipse;whiteSpace=wrap;html=1;aspect=fixed;rounded=1;" vertex="1" parent="1">
          <mxGeometry x="1149.5" y="902" width="30" height="30" as="geometry" />
        </mxCell>
        <mxCell id="wFGTanM9Hy6jvcVWlgYb-245" value="i" style="ellipse;whiteSpace=wrap;html=1;aspect=fixed;rounded=1;" vertex="1" parent="1">
          <mxGeometry x="1063.5" y="902" width="30" height="30" as="geometry" />
        </mxCell>
        <mxCell id="wFGTanM9Hy6jvcVWlgYb-246" value="l" style="ellipse;whiteSpace=wrap;html=1;aspect=fixed;rounded=1;" vertex="1" parent="1">
          <mxGeometry x="1149.5" y="960" width="30" height="30" as="geometry" />
        </mxCell>
        <mxCell id="wFGTanM9Hy6jvcVWlgYb-247" value="" style="endArrow=none;html=1;rounded=1;entryX=0.5;entryY=1;entryDx=0;entryDy=0;exitX=0.5;exitY=0;exitDx=0;exitDy=0;" edge="1" parent="1" source="wFGTanM9Hy6jvcVWlgYb-246" target="wFGTanM9Hy6jvcVWlgYb-244">
          <mxGeometry width="50" height="50" relative="1" as="geometry">
            <mxPoint x="1248.5" y="850.5" as="sourcePoint" />
            <mxPoint x="1298.5" y="800.5" as="targetPoint" />
          </mxGeometry>
        </mxCell>
        <mxCell id="wFGTanM9Hy6jvcVWlgYb-248" value=";" style="ellipse;whiteSpace=wrap;html=1;aspect=fixed;rounded=1;" vertex="1" parent="1">
          <mxGeometry x="1191.5" y="902" width="30" height="30" as="geometry" />
        </mxCell>
        <mxCell id="wFGTanM9Hy6jvcVWlgYb-249" value="" style="endArrow=none;html=1;rounded=1;entryX=0.5;entryY=1;entryDx=0;entryDy=0;exitX=0.5;exitY=0;exitDx=0;exitDy=0;" edge="1" parent="1" source="wFGTanM9Hy6jvcVWlgYb-254" target="wFGTanM9Hy6jvcVWlgYb-242">
          <mxGeometry width="50" height="50" relative="1" as="geometry">
            <mxPoint x="1028.5" y="902" as="sourcePoint" />
            <mxPoint x="1047.5" y="1011.5" as="targetPoint" />
          </mxGeometry>
        </mxCell>
        <mxCell id="wFGTanM9Hy6jvcVWlgYb-250" value="" style="endArrow=none;html=1;rounded=1;entryX=0.5;entryY=1;entryDx=0;entryDy=0;exitX=0.5;exitY=0;exitDx=0;exitDy=0;" edge="1" parent="1" source="wFGTanM9Hy6jvcVWlgYb-245" target="wFGTanM9Hy6jvcVWlgYb-242">
          <mxGeometry width="50" height="50" relative="1" as="geometry">
            <mxPoint x="1059.5" y="980.5" as="sourcePoint" />
            <mxPoint x="1109.5" y="930.5" as="targetPoint" />
          </mxGeometry>
        </mxCell>
        <mxCell id="wFGTanM9Hy6jvcVWlgYb-251" value="" style="endArrow=none;html=1;rounded=1;entryX=0.5;entryY=1;entryDx=0;entryDy=0;exitX=0.5;exitY=0;exitDx=0;exitDy=0;" edge="1" parent="1" source="wFGTanM9Hy6jvcVWlgYb-243" target="wFGTanM9Hy6jvcVWlgYb-242">
          <mxGeometry width="50" height="50" relative="1" as="geometry">
            <mxPoint x="1129.5" y="972.5" as="sourcePoint" />
            <mxPoint x="1120.5" y="872.5" as="targetPoint" />
          </mxGeometry>
        </mxCell>
        <mxCell id="wFGTanM9Hy6jvcVWlgYb-252" value="" style="endArrow=none;html=1;rounded=1;entryX=0.5;entryY=1;entryDx=0;entryDy=0;exitX=0.5;exitY=0;exitDx=0;exitDy=0;" edge="1" parent="1" source="wFGTanM9Hy6jvcVWlgYb-244" target="wFGTanM9Hy6jvcVWlgYb-242">
          <mxGeometry width="50" height="50" relative="1" as="geometry">
            <mxPoint x="1094.5" y="1037.5" as="sourcePoint" />
            <mxPoint x="1144.5" y="987.5" as="targetPoint" />
          </mxGeometry>
        </mxCell>
        <mxCell id="wFGTanM9Hy6jvcVWlgYb-253" value="" style="endArrow=none;html=1;rounded=1;entryX=0.5;entryY=1;entryDx=0;entryDy=0;exitX=0.5;exitY=0;exitDx=0;exitDy=0;" edge="1" parent="1" source="wFGTanM9Hy6jvcVWlgYb-248" target="wFGTanM9Hy6jvcVWlgYb-242">
          <mxGeometry width="50" height="50" relative="1" as="geometry">
            <mxPoint x="1175.5" y="883.5" as="sourcePoint" />
            <mxPoint x="1225.5" y="833.5" as="targetPoint" />
          </mxGeometry>
        </mxCell>
        <mxCell id="wFGTanM9Hy6jvcVWlgYb-254" value="t" style="ellipse;whiteSpace=wrap;html=1;aspect=fixed;rounded=1;" vertex="1" parent="1">
          <mxGeometry x="1021.5" y="901" width="30" height="30" as="geometry" />
        </mxCell>
        <mxCell id="wFGTanM9Hy6jvcVWlgYb-255" value="N" style="ellipse;whiteSpace=wrap;html=1;aspect=fixed;rounded=1;" vertex="1" parent="1">
          <mxGeometry x="1246.5" y="895" width="30" height="30" as="geometry" />
        </mxCell>
        <mxCell id="wFGTanM9Hy6jvcVWlgYb-256" value=";" style="ellipse;whiteSpace=wrap;html=1;aspect=fixed;rounded=1;" vertex="1" parent="1">
          <mxGeometry x="1305.5" y="957" width="30" height="30" as="geometry" />
        </mxCell>
        <mxCell id="wFGTanM9Hy6jvcVWlgYb-257" value="z" style="ellipse;whiteSpace=wrap;html=1;aspect=fixed;rounded=1;" vertex="1" parent="1">
          <mxGeometry x="1221.5" y="957" width="30" height="30" as="geometry" />
        </mxCell>
        <mxCell id="wFGTanM9Hy6jvcVWlgYb-258" value="i" style="ellipse;whiteSpace=wrap;html=1;aspect=fixed;rounded=1;" vertex="1" parent="1">
          <mxGeometry x="1264.5" y="957" width="30" height="30" as="geometry" />
        </mxCell>
        <mxCell id="wFGTanM9Hy6jvcVWlgYb-259" value="" style="endArrow=none;html=1;rounded=1;entryX=0.5;entryY=1;entryDx=0;entryDy=0;exitX=0.5;exitY=0;exitDx=0;exitDy=0;" edge="1" parent="1" source="wFGTanM9Hy6jvcVWlgYb-257" target="wFGTanM9Hy6jvcVWlgYb-255">
          <mxGeometry width="50" height="50" relative="1" as="geometry">
            <mxPoint x="1201.5" y="1000" as="sourcePoint" />
            <mxPoint x="1251.5" y="950" as="targetPoint" />
          </mxGeometry>
        </mxCell>
        <mxCell id="wFGTanM9Hy6jvcVWlgYb-260" value="" style="endArrow=none;html=1;rounded=1;entryX=0.5;entryY=1;entryDx=0;entryDy=0;exitX=0.5;exitY=0;exitDx=0;exitDy=0;" edge="1" parent="1" source="wFGTanM9Hy6jvcVWlgYb-258" target="wFGTanM9Hy6jvcVWlgYb-255">
          <mxGeometry width="50" height="50" relative="1" as="geometry">
            <mxPoint x="1261.5" y="1053" as="sourcePoint" />
            <mxPoint x="1311.5" y="1003" as="targetPoint" />
          </mxGeometry>
        </mxCell>
        <mxCell id="wFGTanM9Hy6jvcVWlgYb-261" value="" style="endArrow=none;html=1;rounded=1;entryX=0.5;entryY=1;entryDx=0;entryDy=0;exitX=0.5;exitY=0;exitDx=0;exitDy=0;" edge="1" parent="1" source="wFGTanM9Hy6jvcVWlgYb-256" target="wFGTanM9Hy6jvcVWlgYb-255">
          <mxGeometry width="50" height="50" relative="1" as="geometry">
            <mxPoint x="1274.5" y="1051" as="sourcePoint" />
            <mxPoint x="1324.5" y="1001" as="targetPoint" />
          </mxGeometry>
        </mxCell>
        <mxCell id="wFGTanM9Hy6jvcVWlgYb-262" value="" style="endArrow=none;html=1;rounded=1;entryX=0.5;entryY=1;entryDx=0;entryDy=0;exitX=0.5;exitY=0;exitDx=0;exitDy=0;" edge="1" parent="1" source="wFGTanM9Hy6jvcVWlgYb-255" target="wFGTanM9Hy6jvcVWlgYb-242">
          <mxGeometry width="50" height="50" relative="1" as="geometry">
            <mxPoint x="1081.88" y="1028" as="sourcePoint" />
            <mxPoint x="1131.88" y="978" as="targetPoint" />
          </mxGeometry>
        </mxCell>
        <mxCell id="wFGTanM9Hy6jvcVWlgYb-263" value="" style="endArrow=none;html=1;rounded=1;entryX=0.5;entryY=1;entryDx=0;entryDy=0;exitX=0.5;exitY=0;exitDx=0;exitDy=0;" edge="1" parent="1" source="wFGTanM9Hy6jvcVWlgYb-242" target="wFGTanM9Hy6jvcVWlgYb-234">
          <mxGeometry width="50" height="50" relative="1" as="geometry">
            <mxPoint x="1098.5" y="850" as="sourcePoint" />
            <mxPoint x="1148.5" y="800" as="targetPoint" />
          </mxGeometry>
        </mxCell>
        <mxCell id="wFGTanM9Hy6jvcVWlgYb-264" value="N" style="ellipse;whiteSpace=wrap;html=1;aspect=fixed;rounded=1;" vertex="1" parent="1">
          <mxGeometry x="1354.5" y="957" width="30" height="30" as="geometry" />
        </mxCell>
        <mxCell id="wFGTanM9Hy6jvcVWlgYb-265" value="=" style="ellipse;whiteSpace=wrap;html=1;aspect=fixed;rounded=1;" vertex="1" parent="1">
          <mxGeometry x="1405.5" y="1018" width="30" height="30" as="geometry" />
        </mxCell>
        <mxCell id="wFGTanM9Hy6jvcVWlgYb-266" value="E" style="ellipse;whiteSpace=wrap;html=1;aspect=fixed;rounded=1;" vertex="1" parent="1">
          <mxGeometry x="1448.5" y="1018" width="30" height="30" as="geometry" />
        </mxCell>
        <mxCell id="wFGTanM9Hy6jvcVWlgYb-267" value="i" style="ellipse;whiteSpace=wrap;html=1;aspect=fixed;rounded=1;" vertex="1" parent="1">
          <mxGeometry x="1362.5" y="1018" width="30" height="30" as="geometry" />
        </mxCell>
        <mxCell id="wFGTanM9Hy6jvcVWlgYb-268" value="l" style="ellipse;whiteSpace=wrap;html=1;aspect=fixed;rounded=1;" vertex="1" parent="1">
          <mxGeometry x="1448.5" y="1076" width="30" height="30" as="geometry" />
        </mxCell>
        <mxCell id="wFGTanM9Hy6jvcVWlgYb-269" value="" style="endArrow=none;html=1;rounded=1;entryX=0.5;entryY=1;entryDx=0;entryDy=0;exitX=0.5;exitY=0;exitDx=0;exitDy=0;" edge="1" parent="1" source="wFGTanM9Hy6jvcVWlgYb-268" target="wFGTanM9Hy6jvcVWlgYb-266">
          <mxGeometry width="50" height="50" relative="1" as="geometry">
            <mxPoint x="1547.5" y="966.5" as="sourcePoint" />
            <mxPoint x="1597.5" y="916.5" as="targetPoint" />
          </mxGeometry>
        </mxCell>
        <mxCell id="wFGTanM9Hy6jvcVWlgYb-270" value=";" style="ellipse;whiteSpace=wrap;html=1;aspect=fixed;rounded=1;" vertex="1" parent="1">
          <mxGeometry x="1490.5" y="1018" width="30" height="30" as="geometry" />
        </mxCell>
        <mxCell id="wFGTanM9Hy6jvcVWlgYb-271" value="" style="endArrow=none;html=1;rounded=1;entryX=0.5;entryY=1;entryDx=0;entryDy=0;exitX=0.5;exitY=0;exitDx=0;exitDy=0;" edge="1" parent="1" source="wFGTanM9Hy6jvcVWlgYb-276" target="wFGTanM9Hy6jvcVWlgYb-264">
          <mxGeometry width="50" height="50" relative="1" as="geometry">
            <mxPoint x="1327.5" y="1018" as="sourcePoint" />
            <mxPoint x="1346.5" y="1127.5" as="targetPoint" />
          </mxGeometry>
        </mxCell>
        <mxCell id="wFGTanM9Hy6jvcVWlgYb-272" value="" style="endArrow=none;html=1;rounded=1;entryX=0.5;entryY=1;entryDx=0;entryDy=0;exitX=0.5;exitY=0;exitDx=0;exitDy=0;" edge="1" parent="1" source="wFGTanM9Hy6jvcVWlgYb-267" target="wFGTanM9Hy6jvcVWlgYb-264">
          <mxGeometry width="50" height="50" relative="1" as="geometry">
            <mxPoint x="1358.5" y="1096.5" as="sourcePoint" />
            <mxPoint x="1408.5" y="1046.5" as="targetPoint" />
          </mxGeometry>
        </mxCell>
        <mxCell id="wFGTanM9Hy6jvcVWlgYb-273" value="" style="endArrow=none;html=1;rounded=1;entryX=0.5;entryY=1;entryDx=0;entryDy=0;exitX=0.5;exitY=0;exitDx=0;exitDy=0;" edge="1" parent="1" source="wFGTanM9Hy6jvcVWlgYb-265" target="wFGTanM9Hy6jvcVWlgYb-264">
          <mxGeometry width="50" height="50" relative="1" as="geometry">
            <mxPoint x="1428.5" y="1088.5" as="sourcePoint" />
            <mxPoint x="1419.5" y="988.5" as="targetPoint" />
          </mxGeometry>
        </mxCell>
        <mxCell id="wFGTanM9Hy6jvcVWlgYb-274" value="" style="endArrow=none;html=1;rounded=1;entryX=0.5;entryY=1;entryDx=0;entryDy=0;exitX=0.5;exitY=0;exitDx=0;exitDy=0;" edge="1" parent="1" source="wFGTanM9Hy6jvcVWlgYb-266" target="wFGTanM9Hy6jvcVWlgYb-264">
          <mxGeometry width="50" height="50" relative="1" as="geometry">
            <mxPoint x="1393.5" y="1153.5" as="sourcePoint" />
            <mxPoint x="1443.5" y="1103.5" as="targetPoint" />
          </mxGeometry>
        </mxCell>
        <mxCell id="wFGTanM9Hy6jvcVWlgYb-275" value="" style="endArrow=none;html=1;rounded=1;entryX=0.5;entryY=1;entryDx=0;entryDy=0;exitX=0.5;exitY=0;exitDx=0;exitDy=0;" edge="1" parent="1" source="wFGTanM9Hy6jvcVWlgYb-270" target="wFGTanM9Hy6jvcVWlgYb-264">
          <mxGeometry width="50" height="50" relative="1" as="geometry">
            <mxPoint x="1474.5" y="999.5" as="sourcePoint" />
            <mxPoint x="1524.5" y="949.5" as="targetPoint" />
          </mxGeometry>
        </mxCell>
        <mxCell id="wFGTanM9Hy6jvcVWlgYb-276" value="t" style="ellipse;whiteSpace=wrap;html=1;aspect=fixed;rounded=1;" vertex="1" parent="1">
          <mxGeometry x="1320.5" y="1017" width="30" height="30" as="geometry" />
        </mxCell>
        <mxCell id="wFGTanM9Hy6jvcVWlgYb-277" value="N" style="ellipse;whiteSpace=wrap;html=1;aspect=fixed;rounded=1;" vertex="1" parent="1">
          <mxGeometry x="1545.5" y="1011" width="30" height="30" as="geometry" />
        </mxCell>
        <mxCell id="wFGTanM9Hy6jvcVWlgYb-278" value=";" style="ellipse;whiteSpace=wrap;html=1;aspect=fixed;rounded=1;" vertex="1" parent="1">
          <mxGeometry x="1604.5" y="1073" width="30" height="30" as="geometry" />
        </mxCell>
        <mxCell id="wFGTanM9Hy6jvcVWlgYb-279" value="z" style="ellipse;whiteSpace=wrap;html=1;aspect=fixed;rounded=1;" vertex="1" parent="1">
          <mxGeometry x="1520.5" y="1073" width="30" height="30" as="geometry" />
        </mxCell>
        <mxCell id="wFGTanM9Hy6jvcVWlgYb-280" value="i" style="ellipse;whiteSpace=wrap;html=1;aspect=fixed;rounded=1;" vertex="1" parent="1">
          <mxGeometry x="1563.5" y="1073" width="30" height="30" as="geometry" />
        </mxCell>
        <mxCell id="wFGTanM9Hy6jvcVWlgYb-281" value="" style="endArrow=none;html=1;rounded=1;entryX=0.5;entryY=1;entryDx=0;entryDy=0;exitX=0.5;exitY=0;exitDx=0;exitDy=0;" edge="1" parent="1" source="wFGTanM9Hy6jvcVWlgYb-279" target="wFGTanM9Hy6jvcVWlgYb-277">
          <mxGeometry width="50" height="50" relative="1" as="geometry">
            <mxPoint x="1500.5" y="1116" as="sourcePoint" />
            <mxPoint x="1550.5" y="1066" as="targetPoint" />
          </mxGeometry>
        </mxCell>
        <mxCell id="wFGTanM9Hy6jvcVWlgYb-282" value="" style="endArrow=none;html=1;rounded=1;entryX=0.5;entryY=1;entryDx=0;entryDy=0;exitX=0.5;exitY=0;exitDx=0;exitDy=0;" edge="1" parent="1" source="wFGTanM9Hy6jvcVWlgYb-280" target="wFGTanM9Hy6jvcVWlgYb-277">
          <mxGeometry width="50" height="50" relative="1" as="geometry">
            <mxPoint x="1560.5" y="1169" as="sourcePoint" />
            <mxPoint x="1610.5" y="1119" as="targetPoint" />
          </mxGeometry>
        </mxCell>
        <mxCell id="wFGTanM9Hy6jvcVWlgYb-283" value="" style="endArrow=none;html=1;rounded=1;entryX=0.5;entryY=1;entryDx=0;entryDy=0;exitX=0.5;exitY=0;exitDx=0;exitDy=0;" edge="1" parent="1" source="wFGTanM9Hy6jvcVWlgYb-278" target="wFGTanM9Hy6jvcVWlgYb-277">
          <mxGeometry width="50" height="50" relative="1" as="geometry">
            <mxPoint x="1573.5" y="1167" as="sourcePoint" />
            <mxPoint x="1623.5" y="1117" as="targetPoint" />
          </mxGeometry>
        </mxCell>
        <mxCell id="wFGTanM9Hy6jvcVWlgYb-284" value="" style="endArrow=none;html=1;rounded=1;entryX=0.5;entryY=1;entryDx=0;entryDy=0;exitX=0.5;exitY=0;exitDx=0;exitDy=0;" edge="1" parent="1" source="wFGTanM9Hy6jvcVWlgYb-277" target="wFGTanM9Hy6jvcVWlgYb-264">
          <mxGeometry width="50" height="50" relative="1" as="geometry">
            <mxPoint x="1380.88" y="1144" as="sourcePoint" />
            <mxPoint x="1430.88" y="1094" as="targetPoint" />
          </mxGeometry>
        </mxCell>
        <mxCell id="wFGTanM9Hy6jvcVWlgYb-285" value="" style="endArrow=none;html=1;rounded=1;entryX=0.5;entryY=1;entryDx=0;entryDy=0;exitX=0.5;exitY=0;exitDx=0;exitDy=0;" edge="1" parent="1" source="wFGTanM9Hy6jvcVWlgYb-264" target="wFGTanM9Hy6jvcVWlgYb-255">
          <mxGeometry width="50" height="50" relative="1" as="geometry">
            <mxPoint x="1228.5" y="1135" as="sourcePoint" />
            <mxPoint x="1278.5" y="1085" as="targetPoint" />
          </mxGeometry>
        </mxCell>
        <mxCell id="wFGTanM9Hy6jvcVWlgYb-286" value="4" style="ellipse;whiteSpace=wrap;html=1;aspect=fixed;rounded=1;" vertex="1" parent="1">
          <mxGeometry x="1655.5" y="1073" width="30" height="30" as="geometry" />
        </mxCell>
        <mxCell id="wFGTanM9Hy6jvcVWlgYb-287" value="" style="endArrow=none;html=1;rounded=1;entryX=0.5;entryY=1;entryDx=0;entryDy=0;exitX=0.5;exitY=0;exitDx=0;exitDy=0;" edge="1" parent="1" source="wFGTanM9Hy6jvcVWlgYb-286" target="wFGTanM9Hy6jvcVWlgYb-277">
          <mxGeometry width="50" height="50" relative="1" as="geometry">
            <mxPoint x="1664.5" y="1061" as="sourcePoint" />
            <mxPoint x="1543.5" y="950" as="targetPoint" />
          </mxGeometry>
        </mxCell>
      </root>
    </mxGraphModel>
  </diagram>
</mxfile>
